<svg width="108" height="53" viewBox="0 0 108 53" fill="none" xmlns="http://www.w3.org/2000/svg">
<g clip-path="url(#clip0)">
<path d="M51.0162 52.6048C50.9167 53.0004 50.9167 53.0004 50.7178 53.0004C50.5189 53.0004 49.425 52.8026 48.9278 52.4071C48.6294 52.2093 49.425 47.1664 50.2206 42.2224C50.32 38.9593 51.0162 33.3231 51.7123 33.3231C52.309 33.3231 53.204 33.9164 53.204 34.2131L53.1046 34.8063C53.9001 33.6198 54.7952 33.1254 55.4913 33.1254C58.2758 33.1254 58.7731 35.6963 58.6736 38.4649C58.5742 41.4313 57.5797 47.7597 54.099 47.7597C52.8062 47.7597 52.0106 46.8698 51.6128 45.7821L51.5134 46.3754C51.3145 48.353 51.1156 51.4183 51.0162 52.6048ZM53.7012 45.881C56.1874 45.881 56.983 38.7616 57.0825 37.1795C57.0825 36.3884 57.2814 34.5097 56.1874 34.5097C54.5963 34.5097 53.4029 39.1571 53.1046 40.6403C53.1046 40.7392 52.6073 40.5414 52.4084 40.4425C52.4084 40.4425 52.2095 41.3325 52.2095 42.1235C52.2095 44.2 52.6073 45.881 53.7012 45.881ZM61.1598 34.1142C61.2593 33.8175 61.4582 33.8175 61.657 33.8175C61.5576 33.8175 63.8449 33.9164 63.646 34.8063C62.8504 37.7728 61.657 42.9146 61.657 44.991C61.657 45.9798 62.0548 46.4743 62.4526 46.4743C64.1432 46.4743 64.6405 43.6067 64.6405 42.519C64.6405 42.519 65.6349 42.2224 65.6349 43.3101C65.6349 44.991 64.6405 48.0563 61.657 48.0563C60.1653 48.0563 59.3698 46.9687 59.3698 44.8922C59.3698 42.0246 60.5631 35.9929 61.1598 34.1142ZM61.5576 30.0601C61.5576 29.269 61.8559 27.0937 63.2482 27.0937C63.9443 27.0937 64.3421 27.2914 64.1432 28.0825C64.541 28.2802 64.9388 28.5769 64.9388 29.269C64.9388 30.159 64.3421 31.6422 62.6515 31.6422C62.2537 31.741 61.5576 31.2466 61.5576 30.0601ZM69.3145 33.422C70.7068 33.422 71.9996 34.7075 71.9996 36.0918C71.9996 38.5638 71.0051 39.7504 70.0106 39.7504C69.2151 39.7504 68.8173 39.256 68.8173 38.4649V38.2672C68.8173 38.2672 69.7123 37.2784 69.7123 35.4985C69.7123 35.103 69.5134 34.9052 69.2151 34.9052C67.8228 34.9052 66.53 39.0582 66.53 43.1123C66.53 45.5843 67.3256 46.3754 68.4195 46.3754C70.6073 46.3754 72.1985 43.0134 72.3974 41.3325C72.3974 41.3325 72.6957 41.3325 72.7952 41.3325C73.0935 41.3325 73.5907 41.5302 73.5907 42.8157C73.5907 43.7056 72.5963 48.1552 68.9167 48.1552C66.2316 48.1552 64.3421 45.7821 64.3421 42.3213C64.3421 39.1571 65.9333 33.422 69.3145 33.422ZM72.4968 42.7168C72.5963 38.6627 73.8891 31.4444 74.3863 27.6869C74.4858 27.0937 74.6847 26.9948 74.8836 26.9948C75.3808 26.9948 75.9775 27.0937 76.4747 27.3903C76.8725 27.5881 76.7731 27.8847 76.7731 28.2802C76.2758 31.2466 75.4802 36.3884 75.1819 37.9705C76.3753 36.4873 79.5576 33.1254 81.4471 33.1254C81.9443 33.1254 82.2427 33.422 82.1432 34.0153C80.5521 35.3007 77.6681 37.6739 76.1764 39.7504C78.0659 42.3213 79.9554 44.3978 82.2427 47.8586C82.541 48.353 82.4416 48.6496 82.2427 48.7485C81.9443 48.9463 81.4471 49.0451 81.0493 49.2429C80.8504 49.3418 80.5521 49.4407 80.1543 48.9463C78.2648 45.881 75.9775 42.9145 74.8836 41.6291C74.6847 43.3101 74.6847 45.3866 74.7841 47.2653C74.7841 47.9575 74.5852 48.1552 74.3863 48.1552C73.9885 48.0563 73.3918 48.0563 73.193 47.9575C72.5963 47.4631 72.5963 47.3642 72.4968 46.7709C72.4968 45.9798 72.4968 44.991 72.4968 42.7168ZM91.3919 38.5638C90.5963 40.9369 89.3035 44.8922 89.3035 47.3642C89.3035 47.3642 89.0051 47.7597 88.4084 47.7597C87.2151 47.7597 86.6184 46.4743 86.6184 44.2989C86.6184 39.6515 87.9112 33.3231 88.5079 33.3231C89.3035 33.3231 90.1985 33.8175 90.099 34.2131C89.6018 36.8828 88.7068 40.2448 88.7068 42.0246H88.8062C89.8007 39.0582 90.7952 36.2895 91.5907 34.4108C91.6902 34.2131 91.9885 34.2131 92.1874 34.2131C92.8836 34.2131 93.9775 34.5097 93.878 35.3996C93.6791 37.2784 93.2814 40.2448 93.2814 42.3213H93.3808C94.3753 39.3548 95.2703 35.9929 96.762 33.1254C96.8615 32.9276 97.0604 32.9276 97.3587 32.9276C98.0548 32.9276 99.3477 33.422 99.2482 34.2131C99.0493 36.8828 97.657 40.9369 97.657 43.9034C97.657 45.2877 98.0548 45.881 98.751 45.881C99.646 45.881 100.143 44.4966 100.342 43.8045C100.342 43.8045 100.939 43.9034 100.939 44.4966C100.939 45.6832 99.7454 47.6608 97.9554 47.6608C96.1653 47.6608 95.6681 45.7821 95.6681 43.6067C95.6681 42.4201 96.1653 39.6515 96.4637 38.366H96.1653C95.0714 40.7392 93.7786 45.6832 93.878 48.2541C93.878 48.2541 93.5797 48.6496 92.983 48.6496C91.7896 48.6496 91.5907 47.4631 91.4913 45.4854C91.4913 43.3101 91.5907 40.7392 91.7896 38.6627H91.3919V38.5638ZM104.221 32.5321C105.215 32.5321 106.408 33.3231 106.408 35.7951C106.408 39.1571 105.513 42.3213 103.326 42.3213C102.132 42.3213 101.734 41.2336 101.734 41.2336C101.734 41.2336 101.237 42.6179 101.237 44.7933C101.237 46.0787 101.734 46.9687 103.127 46.9687C105.215 46.9687 106.806 43.6067 106.806 41.9257C106.806 41.9257 106.806 41.6291 107.204 41.6291C107.602 41.6291 108 42.1235 108 42.9146C108 45.1888 106.508 49.144 103.624 49.144C101.535 49.144 99.646 47.2653 99.646 43.9034C99.646 39.3549 101.834 32.5321 104.221 32.5321ZM102.729 40.6403C103.624 40.6403 104.419 37.6739 104.419 35.2019C104.419 34.1142 104.221 33.9164 104.121 33.9164C104.022 33.9164 103.922 34.0153 103.723 34.4108C103.127 35.894 102.331 38.0694 102.033 39.9481C102.132 39.9481 102.232 40.6403 102.729 40.6403ZM55.3919 2.07686C41.0714 -3.06493 22.972 1.48358 1.69019 15.7224L4.37528 9.69067C4.47472 9.39403 4.37528 9.19627 4.07693 8.99851C3.97749 8.89962 3.77859 8.99851 3.5797 8.99851C3.5797 9.09739 3.48025 9.19627 3.48025 9.29515L-0.000415121 16.909C-0.0998626 17.1067 -0.0998626 17.2056 -0.000415121 17.4034C0.0990324 17.5022 0.297927 17.6011 0.397375 17.6011L8.75097 17.4034C9.04931 17.4034 9.2482 17.2056 9.2482 16.909C9.2482 16.6123 9.04931 16.4145 8.75097 16.4145L1.98854 16.5134C23.1709 2.47239 40.972 -2.07612 55.0935 2.96679C67.7233 7.5153 73.3919 18.7877 74.088 21.3586L75.0825 21.0619C75.0825 20.9631 70.309 7.41642 55.3919 2.07686Z" fill="#D4CA8B"/>
</g>
<defs>
<clipPath id="clip0">
<rect width="108" height="53" fill="white"/>
</clipPath>
</defs>
</svg>
