<svg width="154" height="160" viewBox="0 0 154 160" fill="none" xmlns="http://www.w3.org/2000/svg">
<path d="M49.5532 127.357H0V128.443H49.5532V127.357Z" fill="url(#paint0_linear)"/>
<path d="M151.191 127.357H98.817V128.443H151.191V127.357Z" fill="url(#paint1_linear)"/>
<path d="M27.2723 156.828H0V157.914H27.2723V156.828Z" fill="url(#paint2_linear)"/>
<path d="M151.191 156.828H121.098V157.914H151.191V156.828Z" fill="url(#paint3_linear)"/>
<path d="M74.2936 17.7268C72.5575 16.5683 68.8681 14.3959 65.6128 15.12C63.9489 15.4821 62.6468 16.6407 61.8511 18.3785C60.9106 20.406 60.5489 23.7369 64.0936 28.2264C64.8894 29.2401 65.7575 30.1814 66.5532 30.9056C65.7575 31.0504 65.1064 31.2676 64.4553 31.4848C62.5745 30.3987 59.6085 27.9367 58.4511 25.3299C57.8724 24.0265 57.8724 22.9404 58.5234 21.9991C58.8851 21.4198 59.3915 21.0577 59.9702 20.8405C60.0426 19.6819 60.3319 18.6682 60.6936 17.7992C60.6936 17.7992 60.6936 17.7268 60.766 17.7268C59.0298 17.7992 57.2936 18.5233 56.1362 20.406C54.9787 22.1439 54.9064 24.2438 55.8468 26.4885C56.9319 28.9505 59.1745 31.1952 61.2723 32.7882C60.983 32.9331 59.9702 33.5848 59.6085 33.8744C59.6085 33.8744 59.9702 33.5123 59.6085 33.8744C59.6085 33.8744 59.7532 34.0192 62.5745 37.2053C62.5745 37.2053 65.7575 34.5985 74.366 34.3813C82.9745 34.5985 86.1575 37.1329 86.1575 37.2053C89.0511 34.0192 89.1234 33.8744 89.1234 33.8744C88.7617 33.5123 89.1234 33.8744 89.1234 33.8744C88.7617 33.5123 87.7489 32.9331 87.4596 32.7882C89.5575 31.1952 91.8 28.8781 92.8851 26.4885C93.8255 24.2438 93.7532 22.1439 92.5958 20.406C91.366 18.5233 89.6298 17.7992 87.966 17.7268C87.966 17.7268 87.966 17.7992 88.0383 17.7992C88.4 18.5958 88.6894 19.6095 88.7617 20.8405C89.2681 21.0577 89.7745 21.4198 90.2085 21.9991C90.7872 22.9404 90.8596 24.0265 90.2809 25.3299C89.1234 27.9367 86.1575 30.3987 84.2766 31.4848C83.6255 31.2676 82.9745 31.1228 82.1787 30.9056C82.9745 30.109 83.8426 29.2401 84.6383 28.2264C88.1106 23.7369 87.7489 20.406 86.8809 18.3785C86.0851 16.6407 84.783 15.4821 83.1192 15.12C79.7192 14.3959 75.9575 16.5683 74.2936 17.7268ZM74.2213 30.0366C72.7745 30.0366 71.4 30.1815 70.1702 30.3263C69.1575 29.5298 67.9277 28.3712 66.7702 27.0678C65.1064 25.0403 63.2979 22.1439 64.4553 19.6819C65.0341 18.4509 65.7575 18.1613 66.2638 18.0165C68.5787 17.4372 72.1958 19.7543 73.3532 20.6957L74.2936 21.4198L75.2341 20.6957C76.3915 19.7543 80.0085 17.4372 82.3234 18.0165C82.8298 18.1613 83.5532 18.4509 84.1319 19.6819C85.2894 22.1439 83.4809 25.0403 81.817 27.0678C80.6596 28.4436 79.4298 29.5298 78.417 30.3263C77.1872 30.1815 75.8851 30.109 74.366 30.0366H74.2213Z" fill="url(#paint4_linear)"/>
<path d="M74.2936 22.5784L69.1575 25.7644L70.3873 28.9505C71.3277 28.8781 72.3404 28.8057 73.4256 28.7333L72.7745 26.9954L74.2936 26.0541L75.8128 26.9954L75.1617 28.7333C76.2468 28.8057 77.2596 28.8781 78.2 28.9505L79.4298 25.7644L74.2936 22.5784Z" fill="url(#paint5_linear)"/>
<path d="M94.6213 43.7222C99.7574 43.7222 104.315 44.3739 106.63 44.736C104.894 52.9908 105.906 60.1594 107.281 69.8624C107.715 72.9037 108.149 76.0898 108.583 79.6379C110.391 94.9165 94.1872 104.547 86.3745 109.181C80.6596 112.585 76.7532 115.698 74.2936 118.884C71.834 115.698 67.9276 112.585 62.2128 109.181C54.4 104.547 38.2681 94.8441 40.0042 79.6379C40.4383 76.0173 40.8723 72.9037 41.3064 69.79C42.6808 60.087 43.6936 52.9184 41.9574 44.6635C44.2723 44.2291 48.8298 43.6498 53.9659 43.6498C62.2851 43.6498 68.7957 45.2428 73.3532 48.3565L74.2936 49.0082L75.234 48.3565C79.7915 45.3152 86.3021 43.7222 94.6213 43.7222ZM45.2128 78.0448H47.0936H72.9191H73.9319V79.2758V108.457V111.861L76.6085 109.761C78.7064 108.168 81.0213 106.575 83.7702 104.909C88.4 102.158 93.7532 98.7543 97.8766 94.4097C100.698 91.4408 104.315 86.7341 103.519 80.2172C103.447 79.7827 103.447 79.4206 103.374 78.9862L103.23 77.538H101.783H75.5957H74.583V76.307V56.3217V55.4527L73.8596 54.9459L70.4596 52.6287C66.7702 50.0943 61.0553 48.791 53.8936 48.791C52.3745 48.791 50.8553 48.8634 49.2638 48.9358L47.6 49.0806L47.6723 50.746C48.034 57.1182 47.1659 63.4179 46.1532 70.659C45.9362 72.3968 45.6468 74.2795 45.4298 76.1622L45.2128 78.0448ZM94.6213 42.0568C87.8936 42.0568 80.0808 43.1429 74.2936 47.0531C68.5064 43.0705 60.6936 42.0568 53.9659 42.0568C46.2255 42.0568 39.9319 43.4326 39.9319 43.4326C42.8255 54.5838 40.2213 63.5627 38.4128 79.4931C36.5319 95.4234 52.5191 105.344 61.417 110.702C69.0128 115.264 72.5574 118.884 74.3659 121.853C76.1745 118.812 79.6468 115.264 87.3149 110.702C96.2128 105.344 112.2 95.4234 110.319 79.4931C108.438 63.5627 105.906 54.5838 108.8 43.4326C108.655 43.505 102.362 42.0568 94.6213 42.0568ZM47.1659 76.3794C47.383 74.4967 47.6723 72.614 47.8893 70.8762C48.9021 63.4903 49.8425 57.1906 49.4085 50.6012C50.783 50.5288 52.3021 50.4564 53.8936 50.4564C60.6936 50.4564 66.1191 51.6874 69.5191 54.0045L72.9191 56.3217V76.3794H47.1659V76.3794ZM75.5957 108.53V79.3482H101.783C101.855 79.7827 101.855 80.1448 101.928 80.5792C102.579 86.4445 99.2511 90.7167 96.7191 93.3959C92.7404 97.5957 87.5319 100.854 82.9745 103.606C80.1532 105.199 77.6936 106.864 75.5957 108.53Z" fill="url(#paint6_linear)"/>
<path d="M118.855 90.7891C125.221 85.1411 122.834 80.9413 122.834 80.9413C127.97 81.2309 127.102 84.7791 127.102 84.7791C131.081 79.9275 127.826 76.307 127.826 76.307C132.021 77.3208 132.889 79.4931 133.106 81.4482C134.264 90.3547 114.37 97.5957 105.038 100.058C110.898 95.7855 118.277 91.296 118.855 90.7891Z" fill="url(#paint7_linear)"/>
<path d="M110.102 108.095L116.179 107.95C116.179 107.95 112.706 117.291 106.485 113.743C106.485 113.743 108.8 117.219 103.736 119.464C103.736 119.464 104.46 122.577 99.3234 122.071C95.2724 121.636 89.9915 123.084 84.9277 125.184C85 125.184 93.6809 108.312 110.102 108.095ZM107.498 111.499C107.498 111.499 108.438 111.354 108.872 110.702C108.872 110.702 103.085 110.123 92.2341 119.464C92.1617 119.464 99.3234 113.743 107.498 111.499Z" fill="url(#paint8_linear)"/>
<path d="M129.345 101.434C126.668 101.94 117.843 99.044 104.315 104.185C108.8 101.144 116.323 98.3923 124.643 98.9716C127.391 99.1888 132.528 98.8992 135.349 97.3785C135.349 97.3785 135.204 104.982 128.477 106.14L123.196 104.764C120.23 103.823 115.6 103.823 112.055 104.475C106.413 105.561 100.336 107.95 98.5276 109.181C110.753 99.6957 122.689 103.244 129.345 101.434Z" fill="url(#paint9_linear)"/>
<path d="M132.817 38.5087C130.14 36.4088 129.489 32.6434 131.226 29.747C132.455 27.7195 133.974 26.1989 133.974 26.1989C136.506 29.3849 137.157 33.8744 137.157 33.8744C139.255 30.8331 141.86 31.9917 141.86 31.9917C139.255 34.3088 138.749 38.7983 143.668 47.6324C146.851 53.3528 146.345 57.1906 146.345 57.1906C145.332 52.1943 141.643 47.2703 139.183 44.4463C134.047 37.9294 133.974 32.4986 133.974 32.4986C133.396 34.8881 134.336 38.0742 135.421 40.681C134.553 39.8121 133.685 39.0879 132.817 38.5087Z" fill="url(#paint10_linear)"/>
<path d="M134.047 70.0073C125.872 67.7625 122.472 74.2071 122.472 74.2071C119.94 72.4692 120.085 69.0659 121.026 68.4866C117.626 69.2107 114.949 64.6489 114.949 64.6489C116.468 63.4903 117.553 63.0558 119.145 62.8386C114.949 62.3317 113.14 59.5077 112.417 56.5389C111.549 53.208 111.766 51.4701 112.128 49.8771C112.706 47.3427 114.153 46.9083 115.021 47.4876C115.6 47.922 115.383 49.0806 114.515 49.5875C113.574 50.0943 113.43 50.9633 113.43 51.8322C113.213 54.9459 116.323 57.9871 118.855 58.494C118.855 58.494 114.877 55.8872 115.094 52.0494C115.817 53.0632 117.336 53.5701 119.506 53.3528C125.366 52.7011 128.187 55.67 128.187 55.67C126.017 53.6425 126.162 50.0219 126.162 50.0219C139.4 50.0219 145.621 54.439 146.996 72.5416C145.549 66.2419 143.017 60.8111 136.651 55.5251C136.651 55.5251 145.26 64.7213 146.128 76.307C145.838 77.1759 145.404 78.0448 144.97 78.8414C145.043 68.0522 137.085 58.1319 129.272 56.3941C129.272 56.3941 137.374 59.6525 141.281 69.3556C146.128 81.3757 141.209 88.3272 129.489 93.9752L128.766 93.3959C144.826 85.2135 141.57 72.1072 134.047 70.0073Z" fill="url(#paint11_linear)"/>
<path d="M106.991 2.5206C106.991 2.5206 115.745 -1.67921 119.506 3.96882C120.013 4.69292 119.796 6.28596 117.843 6.14114C118.132 4.47569 112.923 0.493106 105.906 6.50319C105.906 6.50319 109.596 3.67917 113.574 4.76533C110.826 6.43078 110.97 12.5133 107.353 15.2649C103.374 18.3061 100.77 26.923 107.715 32.0641C107.715 32.0641 100.77 21.4198 112.417 16.4234C112.417 16.4234 109.813 18.0165 112.634 21.4922C112.634 21.4922 117.77 25.1127 117.264 28.2988C117.264 28.2988 118.566 26.1989 121.532 25.6196C121.532 25.6196 118.277 30.5435 122.4 33.5848C125.945 36.264 140.268 43.9395 143.957 58.2044C138.46 45.1705 127.392 42.4913 127.392 42.4913C126.451 42.1292 125.511 41.912 124.498 41.6948C122.762 41.4051 121.243 41.1155 119.94 40.8982C109.74 38.9432 102.868 33.5848 99.6128 25.7644C96.5745 18.4509 94.9106 8.31345 106.991 2.5206ZM116.757 35.395C121.604 37.6398 128.26 39.8845 131.587 42.4189C121.532 34.8882 113.285 34.2365 110.392 27.1402C110.319 27.1402 110.826 32.6434 116.757 35.395ZM102.072 27.3575C102.072 27.3575 99.1787 20.6957 102.145 11.3547C102.145 11.3547 97.0809 18.3785 102.072 27.3575Z" fill="url(#paint12_linear)"/>
<path d="M29.3702 90.7891C23.0043 85.1411 25.3915 80.9413 25.3915 80.9413C20.2553 81.2309 21.1234 84.779 21.1234 84.779C17.1447 79.9275 20.4 76.307 20.4 76.307C16.2043 77.3208 15.3362 79.4931 15.1191 81.4482C13.9617 90.3547 33.8553 97.5957 43.1872 100.058C37.3277 95.7855 29.8766 91.296 29.3702 90.7891Z" fill="url(#paint13_linear)"/>
<path d="M63.2255 125.184C58.1617 123.084 52.8808 121.708 48.8298 122.071C43.6936 122.577 44.417 119.464 44.417 119.464C39.3532 117.219 41.6681 113.743 41.6681 113.743C35.4468 117.291 31.9745 107.95 31.9745 107.95L38.0511 108.095C54.4723 108.312 63.2255 125.184 63.2255 125.184ZM55.9915 119.464C45.0681 110.123 39.3532 110.702 39.3532 110.702C39.7872 111.426 40.7276 111.499 40.7276 111.499C48.8298 113.743 55.9915 119.464 55.9915 119.464Z" fill="url(#paint14_linear)"/>
<path d="M18.8085 101.434C21.4851 101.94 30.3106 99.044 43.8383 104.185C39.3532 101.144 31.8298 98.3923 23.5106 98.9716C20.7617 99.1888 15.6255 98.8992 12.8043 97.3785C12.8043 97.3785 12.9489 104.982 19.6766 106.14L24.9575 104.764C27.9234 103.823 32.5532 103.823 36.0979 104.475C41.7404 105.561 47.817 107.95 49.6255 109.181C37.4723 99.6957 25.5362 103.244 18.8085 101.434Z" fill="url(#paint15_linear)"/>
<path d="M15.3362 38.5087C18.0128 36.4088 18.6638 32.6434 16.9276 29.747C15.6979 27.7195 14.1787 26.1989 14.1787 26.1989C11.6468 29.3849 10.9957 33.8744 10.9957 33.8744C8.89786 30.8331 6.2936 31.9917 6.2936 31.9917C8.89786 34.3088 9.40424 38.7983 4.48509 47.6324C1.30211 53.3528 1.8085 57.1906 1.8085 57.1906C2.8936 52.1943 6.51062 47.2704 8.9702 44.3739C14.1064 37.857 14.1787 32.4262 14.1787 32.4262C14.7574 34.8157 13.817 38.0018 12.7319 40.6086C13.6723 39.8121 14.5404 39.0879 15.3362 38.5087Z" fill="url(#paint16_linear)"/>
<path d="M14.1064 70.0074C22.2808 67.7627 25.6808 74.2072 25.6808 74.2072C28.2128 72.4694 28.0681 69.0661 27.1277 68.4868C30.5277 69.2109 33.2043 64.649 33.2043 64.649C31.6851 63.4904 30.6 63.056 29.0085 62.8387C33.2043 62.3319 35.0128 59.5078 35.7362 56.539C36.6043 53.2081 36.3872 51.4703 36.0255 49.8772C35.4468 47.3429 34 46.9084 33.1319 47.4877C32.5532 47.9221 32.7702 49.0807 33.6383 49.5876C34.5787 50.0945 34.7234 50.9634 34.7234 51.8323C34.9404 54.946 31.8298 57.9872 29.2979 58.4941C29.2979 58.4941 33.2766 55.8873 33.0596 52.0496C32.3362 53.0633 30.817 53.5702 28.6468 53.3529C22.7872 52.7013 19.966 55.6701 19.966 55.6701C22.1362 53.6426 21.9915 50.0221 21.9915 50.0221C8.75319 50.0221 2.53191 54.4391 1.15744 72.5418C2.74893 66.1696 5.28084 60.7388 11.5745 55.4529C11.5745 55.4529 2.96595 64.649 2.09787 76.2347C2.38723 77.1036 2.82127 77.9726 3.25531 78.7691C3.18297 67.9799 11.1404 58.0596 18.9532 56.3218C18.9532 56.3218 10.8511 59.5803 6.94467 69.2833C2.09787 81.3035 7.01701 88.2549 18.7362 93.9029L19.4596 93.3236C3.39999 85.2136 6.65531 72.1073 14.1064 70.0074Z" fill="url(#paint17_linear)"/>
<path d="M48.5404 25.8369C45.2851 33.6572 38.4128 39.0156 28.2128 40.9707C26.9106 41.1879 25.3915 41.4775 23.6553 41.7672C22.6425 41.9844 21.7021 42.2017 20.7617 42.5637C20.7617 42.5637 9.62127 45.2429 4.19574 58.2768C7.81276 44.0119 22.1362 36.3364 25.7532 33.6572C29.8766 30.5435 26.6213 25.692 26.6213 25.692C29.5872 26.2713 30.8894 28.3712 30.8894 28.3712C30.383 25.1852 35.5191 21.5646 35.5191 21.5646C38.4128 18.0165 35.7362 16.4959 35.7362 16.4959C47.383 21.4922 40.4383 32.1366 40.4383 32.1366C47.383 26.9954 44.7787 18.3786 40.8 15.3373C37.183 12.5857 37.3277 6.50321 34.5787 4.83777C38.5574 3.75161 42.2468 6.57562 42.2468 6.57562C35.2298 0.493129 30.0936 4.4033 30.3106 6.06875C28.2851 6.21357 28.1404 4.62054 28.6468 3.89643C32.4085 -1.7516 41.1617 2.44822 41.1617 2.44822C53.3149 8.31348 51.6511 18.451 48.5404 25.8369ZM37.834 27.1402C34.9404 34.2365 26.6213 34.8882 16.6383 42.4189C19.966 39.8845 26.5489 37.6398 31.4681 35.3951C37.3277 32.6435 37.834 27.1402 37.834 27.1402ZM46.0085 11.3547C49.0468 20.6957 46.0808 27.3575 46.0808 27.3575C51.1447 18.3786 46.0085 11.3547 46.0085 11.3547Z" fill="url(#paint18_linear)"/>
<path d="M78.0553 11.2823L76.4638 10.0513H75.5234V9.11L74.2936 7.51697L72.9915 9.11V10.0513H71.9064L70.4596 11.2823L71.9064 12.5857H72.9915V13.6719L74.2936 15.1201L75.5234 13.6719V12.5857H76.4638L78.0553 11.2823Z" fill="url(#paint19_linear)"/>
<path d="M56.5702 59.363C56.5702 59.363 56.5702 59.2906 56.5702 59.363C56.5702 59.2906 56.5702 59.2906 56.5702 59.363C56.7872 58.3492 58.017 57.7699 58.4511 57.5527C58.8851 57.3355 58.0894 57.1907 58.0894 57.1907L58.1617 56.8286C58.5234 57.2631 59.5362 56.4665 58.8851 56.1045C58.234 55.8148 57.8 56.3941 57.8 56.3941L57.6553 54.8735L59.4638 54.7287C59.8979 54.3666 60.4042 54.4391 60.6213 54.4391C61.1277 54.3666 61.8511 54.4391 62.6468 54.8011C62.5745 54.8735 62.4298 54.8735 62.1404 54.9459C62.3574 55.0907 62.5021 55.1632 62.6468 55.308C63.0808 55.67 63.6596 56.2493 64.1659 57.3355C63.9489 57.3355 63.8042 57.2631 63.6596 57.1907C63.7319 57.5527 63.7319 57.9148 63.7319 58.3492C63.7319 58.4216 63.7319 58.494 63.7319 58.5665C63.7319 59.1457 63.5872 59.9423 63.2979 60.8112C63.2979 60.8112 63.1532 60.7388 63.0085 60.6664L62.9362 61.2456C65.1064 63.1283 64.8894 64.1421 65.1787 64.5765C65.3957 65.0834 66.3362 66.0247 66.8425 65.2282C67.3489 64.5041 66.2638 63.7076 65.1787 62.6939C64.0936 61.6801 63.9489 59.5078 65.2511 58.7113C66.5532 57.9148 67.783 58.9285 67.783 58.9285L67.5659 59.0733C68.2894 59.2906 68.3617 58.4216 68.3617 58.4216C68.8681 59.4354 67.6383 59.725 67.6383 59.725C68.217 59.8698 68 60.6664 68 60.6664C67.4936 61.8973 68.8681 62.0422 68.8681 62.0422C66.9872 62.3318 67.1319 60.594 67.1319 60.594C66.7702 61.1008 66.2638 60.8112 66.2638 60.8112C67.5659 59.725 66.3362 59.363 66.3362 59.363C65.2511 59.1457 64.8893 60.0871 64.8893 60.7388C64.8893 61.6801 65.4681 62.2594 65.4681 62.2594L65.6128 61.7525C66.3362 63.0559 68 63.1283 67.8553 65.0834C67.783 65.9523 66.9149 66.5316 66.1191 66.3144C65.3957 66.0972 64.8893 65.5179 64.8893 65.5179V67.4005L66.9149 68.7764L66.4085 69.1384L67.4213 70.8039L66.6255 70.5866L66.6979 72.3245L66.2638 71.8176C66.2638 71.8176 65.7574 73.5555 65.6128 74.352C65.4681 75.0761 64.6 75.1485 64.6 75.1485C64.4553 74.8588 64.383 74.5692 64.5276 74.2796C64.0213 74.4244 63.8042 75.0037 63.8042 75.0037C63.2979 74.8588 63.5149 73.9899 63.5149 73.9899C63.0808 73.9175 62.6468 74.2796 62.6468 74.2796C62.0681 72.8313 64.0936 72.6865 64.0936 72.6865C64.0936 72.6865 64.8894 71.0211 65.034 70.5142C65.1787 69.9349 63.8766 69.1384 62.7915 68.6315C61.7787 68.1247 62.5745 65.2282 62.5745 65.2282L59.5362 63.4904L59.3191 62.187L59.1745 63.6352L58.6681 63.9973L59.0298 64.1421L58.1617 64.5765L58.0894 64.7214L58.4511 64.9386C58.4511 64.9386 57.8723 65.1558 57.6553 65.2282L56.9319 66.0248C56.3532 66.242 56.2085 66.4592 56.0638 66.8937C55.7745 66.7489 55.7021 66.3868 55.8468 66.0972C55.4128 66.0972 55.2681 66.242 55.1234 66.604C54.7617 65.7351 55.2681 65.5903 55.2681 65.5903C55.1234 65.4455 54.9064 65.4455 54.7617 65.5179C54.7617 64.7214 55.7745 64.5765 55.7745 64.5765L57.0042 62.9835L56.9319 62.187C57.2936 61.7525 56.7872 60.3043 56.6425 59.8698C56.5702 59.5802 56.5702 59.4354 56.5702 59.363Z" fill="url(#paint20_linear)"/>
<path d="M61.851 67.9799C61.851 68.1247 61.7064 69.3557 61.7064 69.3557L61.417 68.9936L61.2723 69.7901L60.983 69.5005L60.0425 70.9487C60.0425 70.9487 59.5362 71.8176 58.8851 71.6728C58.8851 71.4556 58.8851 71.3108 58.9574 71.0935C58.9574 71.0935 58.6681 71.2383 58.3064 71.528C58.3064 71.528 57.9447 70.8039 58.5957 70.4418C58.5957 70.4418 58.234 70.5142 57.8 70.7315C57.8 70.7315 57.4383 69.9349 58.6681 69.5729C59.4638 69.3557 60.1149 68.2695 60.1149 68.2695C60.1149 68.2695 59.7532 67.1833 59.5362 66.8937C59.1745 66.3868 60.1149 64.7214 60.2596 64.7938C60.4042 64.8662 61.7787 65.5903 61.7787 65.5903C61.7064 66.3868 61.5617 66.9661 61.851 67.9799Z" fill="url(#paint21_linear)"/>
<path d="M53.3872 59.4353L55.9915 59.725C55.9915 59.725 55.9191 59.7974 56.1362 60.5939C56.4255 61.3904 56.1362 61.7525 56.1362 61.7525L55.6298 61.6076C55.4128 61.6076 55.3404 61.6076 55.1957 61.8249C54.7617 61.6801 54.617 61.6076 54.2553 61.318C54.0383 61.3904 53.9659 61.4628 53.9659 61.6076C53.6042 61.5352 53.2425 61.3904 52.8085 61.0284C52.3021 60.956 51.8681 61.3904 51.8681 61.3904C51.434 60.6663 52.3745 60.6663 52.3745 60.6663C52.1574 60.2318 51.5064 60.5215 51.5064 60.5215C51.5064 59.8698 52.0128 59.8698 52.0128 59.8698C51.9404 59.2181 51.3617 59.2905 51.3617 59.2905C51.7234 58.2043 53.3872 59.4353 53.3872 59.4353Z" fill="url(#paint22_linear)"/>
<path d="M91.2213 90.6443C89.4128 91.1512 91.5106 90.1375 89.8468 89.1961C88.7617 88.6168 87.4596 88.9065 87.5319 90.5719C87.6043 91.6581 88.1106 92.8891 89.3404 92.4546C89.9192 92.2374 89.1234 93.758 88.1107 93.8304C87.7489 93.8304 86.7362 93.6856 86.6638 92.9615C86.6638 93.9752 86.2298 95.351 85.9404 95.351C85.5787 95.351 85.217 93.9752 85.217 92.9615C85.0724 93.6856 84.0596 93.8304 83.6979 93.8304C82.6851 93.758 81.8894 92.2374 82.4681 92.4546C83.6979 92.8891 84.2043 91.6581 84.2766 90.5719C84.3489 88.9065 83.1192 88.6168 81.9617 89.1961C80.2979 90.065 82.3958 91.1512 80.5872 90.6443C78.7787 90.1375 78.9234 87.1686 81.166 86.5893C82.3234 86.2997 83.3362 86.6617 84.0596 87.1686C83.9149 86.5893 83.8426 85.9376 83.8426 85.2859C83.9872 82.6068 85.5787 80.8689 85.8681 80.8689C86.2298 80.8689 87.8213 82.5343 87.8936 85.2859C87.8936 85.9376 87.8213 86.5893 87.6766 87.1686C88.4 86.7342 89.4851 86.2997 90.5702 86.5893C92.8851 87.1686 93.0298 90.1375 91.2213 90.6443Z" fill="url(#paint23_linear)"/>
<path d="M85.7234 55.3804C86.4468 55.308 86.9532 55.308 87.3149 55.308C87.7489 55.308 88.2553 55.3804 88.7617 55.5252C89.2681 55.67 89.7745 55.8149 90.1362 56.0321C90.7149 56.3941 91.1489 56.901 91.4383 57.5527C91.7277 58.2044 91.8723 58.8561 91.8723 59.5078C91.8723 60.2319 91.7277 60.8836 91.366 61.5353C91.0766 62.187 90.6426 62.6939 90.0638 63.0559C89.7745 63.2731 89.4851 63.3456 89.1958 63.4904C89.3404 63.7076 89.5575 64.0697 89.9192 64.649C90.4255 65.5179 90.9319 66.3144 91.366 66.8937C91.8 67.473 92.2341 68.0523 92.6681 68.6315C93.1745 69.2108 93.6085 69.6453 94.1149 70.0073C94.6213 70.3694 95.1277 70.5142 95.634 70.5142C95.7787 70.5142 95.8511 70.5142 96.0681 70.4418C96.2128 70.4418 96.3574 70.4418 96.5021 70.4418C96.5745 70.4418 96.6468 70.5142 96.6468 70.5866C96.6468 70.659 96.5745 70.7314 96.4298 70.8763C96.2851 70.9487 96.1404 71.0211 95.9957 71.0935C95.7787 71.1659 95.634 71.2383 95.417 71.2383C95.2 71.3107 95.0553 71.3107 94.9106 71.3107C94.2596 71.3107 93.6085 71.1659 93.0298 70.9487C92.4511 70.7314 91.9447 70.3694 91.5106 69.9349C91.0766 69.5005 90.6426 69.066 90.2809 68.5591C89.9192 68.0523 89.4851 67.4006 88.9787 66.6764C88.5447 65.9523 88.183 65.4455 87.8936 65.011C87.6043 64.5765 87.3149 64.2145 86.9532 63.8524H85.9404C85.7958 63.8524 85.5787 63.8524 85.2894 63.9248C85 63.9973 84.783 63.9973 84.566 63.9973C84.566 65.8075 84.6383 67.473 84.7106 68.9212C84.783 69.4281 84.8553 69.7901 85 70.0797C85.1447 70.297 85.434 70.5142 85.7957 70.7314V70.8763C85 70.8039 84.2766 70.8039 83.6979 70.8039C83.3362 70.8039 82.9745 70.8039 82.6128 70.8039C82.1787 70.8039 81.8894 70.8763 81.6 70.8763V70.7314C81.9617 70.5142 82.2511 70.297 82.5404 70.0073C82.7574 69.7177 82.9021 69.4281 82.9021 69.066C82.9021 67.835 82.9745 65.9523 82.9745 63.4904C82.9745 62.549 82.9745 61.6077 82.9021 60.594C82.9021 59.5802 82.8298 58.6389 82.7575 57.6975C82.7575 57.2631 82.6128 56.901 82.4681 56.539C82.3234 56.2493 82.034 55.9597 81.6 55.7424V55.5976C81.9617 55.67 82.3234 55.67 82.6851 55.67C83.0468 55.67 83.3362 55.67 83.6979 55.67C84.2766 55.5252 84.9277 55.4528 85.7234 55.3804ZM84.783 58.3492C84.783 58.6389 84.783 58.9285 84.783 59.4354C84.783 59.9423 84.783 61.1732 84.783 62.9111C85 62.9111 85.2894 62.9111 85.7957 62.9111C86.1575 62.9111 86.4468 62.9111 86.5192 62.9111C87.8936 62.9111 88.7617 62.6215 89.3404 62.0422C89.8468 61.4629 90.1362 60.594 90.1362 59.363C90.1362 58.8561 89.9915 58.3492 89.7745 57.8424C89.5575 57.3355 89.1957 56.9734 88.7617 56.6838C88.4723 56.4666 88.1106 56.3217 87.7489 56.3217C87.3149 56.2493 86.8809 56.2493 86.3745 56.2493C86.1575 56.2493 85.7957 56.2493 85.434 56.3217C85.2894 56.3217 85.1447 56.3217 85.0723 56.3941C85 56.6114 84.9277 56.901 84.9277 57.3355C84.9277 57.5527 84.9277 57.6975 84.9277 57.6975C84.783 57.8424 84.783 58.0596 84.783 58.3492Z" fill="url(#paint24_linear)"/>
<path d="M60.983 84.055C61.4894 84.055 61.7787 84.055 61.9957 84.055C62.2851 84.055 62.6468 84.1274 63.0808 84.2722C63.4425 84.417 63.8766 84.5619 64.2383 84.8515C64.6 85.1411 64.8894 85.5032 65.1064 85.9377C65.3234 86.3721 65.4681 86.879 65.4681 87.4583C65.4681 88.1824 65.2511 88.9065 64.8894 89.4858C64.5276 90.0651 64.0213 90.5719 63.3702 90.934C63.8766 91.0788 64.3106 91.2236 64.817 91.3685C65.2511 91.5133 65.6128 91.7305 65.9021 91.9477C66.4085 92.3098 66.7702 92.8167 66.9872 93.3235C67.2042 93.8304 67.3489 94.4097 67.3489 95.0614C67.3489 95.7131 67.2042 96.3648 66.8425 97.0165C66.4808 97.6682 65.9745 98.2475 65.3957 98.6095C65.034 98.8268 64.5277 99.044 64.0213 99.1164C63.5149 99.1888 62.8638 99.2612 62.2128 99.2612C61.8511 99.2612 61.2 99.2612 60.1149 99.1888C59.3915 99.1888 58.8851 99.1888 58.7404 99.1888C58.3787 99.1888 58.017 99.1888 57.6553 99.1888C57.2213 99.1888 56.9319 99.2612 56.6425 99.2612V99.1164C56.9319 98.9716 57.2213 98.6819 57.5106 98.2475C57.8 97.813 57.9447 97.451 57.9447 97.0165C58.017 96.1476 58.017 95.351 58.017 94.6269C58.017 93.9028 58.017 92.9615 58.017 91.8029C58.017 90.8616 58.017 89.9202 57.9447 88.9065C57.9447 87.8927 57.8723 86.9514 57.8 86.0101C57.8 85.5756 57.6553 85.2136 57.5106 84.8515C57.3659 84.5619 57.0766 84.2722 56.6425 84.055V83.9102C57.0042 83.9826 57.366 83.9826 57.7277 83.9826C58.0894 83.9826 58.3787 83.9826 58.7404 83.9826C59.1021 84.055 59.8979 84.055 60.983 84.055ZM60.0425 98.0302C60.4042 98.2475 61.1277 98.3923 62.2128 98.3923C62.7191 98.3923 63.1532 98.3199 63.5872 98.1751C64.0213 98.0302 64.383 97.8854 64.6723 97.5958C64.9617 97.3061 65.1787 97.0165 65.3234 96.6544C65.4681 96.2924 65.5404 95.8579 65.5404 95.4959C65.5404 94.989 65.4681 94.4821 65.3234 94.0476C65.1787 93.6132 64.8894 93.1787 64.6 92.8167C64.2383 92.4546 63.8042 92.165 63.2979 91.9477C62.7915 91.7305 62.1404 91.6581 61.417 91.6581C61.3447 91.6581 61.2 91.6581 60.9106 91.6581C60.7659 91.6581 60.5489 91.6581 60.2596 91.6581C59.9702 91.6581 59.7532 91.6581 59.5362 91.6581C59.5362 92.165 59.5362 92.8891 59.5362 93.8304C59.5362 95.1338 59.6085 96.1476 59.6085 96.8717C59.5362 97.3785 59.6808 97.813 60.0425 98.0302ZM59.5362 87.5307C59.5362 87.8203 59.5362 88.3272 59.5362 88.9789C59.5362 89.703 59.6085 90.2099 59.6085 90.6444C59.8255 90.6444 60.1149 90.6443 60.6936 90.7168C61.0553 90.7168 61.3447 90.7168 61.4894 90.7168C61.7787 90.7168 62.0681 90.6443 62.2851 90.5719C62.5745 90.4271 62.7915 90.2823 63.0085 89.9927C63.2255 89.703 63.4425 89.4134 63.5872 88.9789C63.7319 88.5444 63.8042 88.0376 63.8042 87.4583C63.8042 86.9514 63.7319 86.5169 63.5872 86.1549C63.4425 85.7928 63.2255 85.5032 62.9362 85.3584C62.6468 85.1411 62.3574 84.9963 62.0681 84.9239C61.7787 84.8515 61.417 84.7791 61.0553 84.7791C60.8383 84.7791 60.4766 84.7791 60.1149 84.8515C59.9702 84.8515 59.8255 84.8515 59.7532 84.9239C59.6808 85.1411 59.6085 85.4308 59.6085 85.8652C59.6085 86.0825 59.6085 86.2273 59.6085 86.2273C59.5362 86.5893 59.5362 87.0238 59.5362 87.5307Z" fill="url(#paint25_linear)"/>
<path d="M11.7915 146.4H9.25957C8.82553 146.111 8.17446 145.242 7.23404 143.938C6.94468 143.504 6.65531 143.142 6.29361 142.708C6.00425 142.345 5.78723 142.056 5.64255 141.983C5.49787 141.911 5.35319 141.839 5.06382 141.839H4.77446V143.866C4.77446 144.59 4.77446 145.097 4.8468 145.314C4.91914 145.532 4.99148 145.676 5.13616 145.821C5.28085 145.966 5.57021 145.966 6.00425 145.966H6.43829V146.256H1.95319V145.966H2.24255C2.60425 145.966 2.89361 145.894 3.03829 145.821C3.18297 145.749 3.25531 145.532 3.32765 145.387C3.39999 145.169 3.39999 144.663 3.39999 143.938V139.377C3.39999 138.653 3.39999 138.146 3.32765 137.928C3.25531 137.711 3.18297 137.566 3.03829 137.494C2.89361 137.422 2.60425 137.349 2.09787 137.349H2.02553V137.059L3.32765 136.987C4.19574 136.915 4.91914 136.915 5.42553 136.915C6.29361 136.915 7.01702 136.987 7.59574 137.132C8.17446 137.277 8.60851 137.566 8.97021 137.928C9.33191 138.29 9.47659 138.725 9.47659 139.304C9.47659 139.884 9.25957 140.463 8.82553 140.825C8.39148 141.259 7.74042 141.549 6.87234 141.621C7.23404 141.839 7.8851 142.49 8.75319 143.649C9.47659 144.59 9.98297 145.242 10.417 145.532C10.8511 145.821 11.2851 145.966 11.8638 145.966V146.4H11.7915ZM4.77446 141.621C5.13616 141.621 5.49787 141.621 5.85957 141.549C6.22127 141.549 6.51063 141.477 6.79999 141.404C7.08936 141.332 7.30638 141.187 7.45106 141.042C7.59574 140.897 7.74042 140.68 7.81276 140.39C7.8851 140.101 7.95744 139.811 7.95744 139.449C7.95744 138.797 7.81276 138.29 7.45106 137.856C7.08936 137.422 6.43829 137.277 5.35319 137.277C5.20851 137.277 4.99148 137.277 4.77446 137.277V141.621V141.621Z" fill="#D4CA8B"/>
<path d="M11.3575 141.694C11.3575 140.246 11.8638 139.087 12.8043 138.218C13.7447 137.349 14.9745 136.915 16.4213 136.915C17.8681 136.915 19.0979 137.349 20.0383 138.218C20.9787 139.087 21.4851 140.246 21.4851 141.766C21.4851 143.214 21.0511 144.373 20.1106 145.242C19.1702 146.111 17.9404 146.545 16.4213 146.545C14.9745 146.545 13.7447 146.111 12.8043 145.242C11.8638 144.301 11.3575 143.142 11.3575 141.694ZM12.9489 141.694C12.9489 143.214 13.2383 144.301 13.817 145.025C14.3958 145.749 15.3362 146.183 16.4936 146.183C17.5064 146.183 18.3745 145.821 18.9532 145.025C19.5319 144.228 19.8936 143.142 19.8936 141.694C19.8936 140.246 19.6043 139.159 19.0255 138.363C18.4468 137.566 17.5787 137.204 16.4213 137.204C15.3362 137.204 14.4681 137.566 13.817 138.363C13.166 139.159 12.9489 140.246 12.9489 141.694Z" fill="#D4CA8B"/>
<path d="M26.5489 142.346L28.3575 139.232C28.6468 138.725 28.7915 138.363 28.7915 138.146C28.7915 137.928 28.7192 137.784 28.5745 137.639C28.4298 137.494 28.1404 137.422 27.7064 137.422V137.132H30.7447V137.422C30.3106 137.494 30.0213 137.639 29.7319 137.856C29.4426 138.073 29.1532 138.58 28.7192 139.232L26.6213 142.708V143.939C26.6213 144.735 26.6213 145.242 26.6936 145.459C26.766 145.676 26.8383 145.821 26.983 145.894C27.1277 145.966 27.417 146.038 27.9234 146.038V146.328H23.9447V146.038H24.0894C24.4511 146.038 24.7404 145.966 24.8851 145.894C25.0298 145.821 25.1021 145.604 25.1745 145.459C25.2468 145.242 25.2468 144.735 25.2468 144.011V142.852L22.9319 139.015C22.4255 138.218 22.1362 137.784 21.9915 137.639C21.8468 137.494 21.5575 137.422 21.1234 137.422V137.132H24.8851V137.422C24.1617 137.422 23.8 137.566 23.8 137.928C23.8 138.073 23.9447 138.291 24.1617 138.725L26.5489 142.346Z" fill="#D4CA8B"/>
<path d="M35.3021 142.997H31.7575L31.5404 143.577C31.1787 144.445 31.0341 145.025 31.0341 145.242C31.0341 145.532 31.1064 145.749 31.3234 145.894C31.5404 146.039 31.7575 146.111 32.0468 146.111V146.401H29.2979V146.111C29.7319 146.038 30.0213 145.894 30.2383 145.676C30.4553 145.459 30.6723 144.952 30.9617 144.228C30.9617 144.156 31.1064 143.866 31.3234 143.432L34 136.987H34.2894L37.4 144.373L37.8341 145.314C37.9064 145.532 38.0511 145.676 38.1958 145.821C38.3404 145.966 38.6298 146.039 38.9192 146.039V146.328H35.3021V146.039C35.7362 146.039 36.0255 146.039 36.2426 145.966C36.3872 145.894 36.4596 145.749 36.4596 145.604C36.4596 145.532 36.3872 145.17 36.1702 144.735L35.3021 142.997ZM35.1575 142.635L33.4936 138.653L31.8298 142.635H35.1575Z" fill="#D4CA8B"/>
<path d="M47.0936 143.649L47.0213 146.401H39.1362V146.111H39.4255C39.7872 146.111 40.0766 146.038 40.2213 145.966C40.366 145.894 40.4383 145.676 40.5107 145.532C40.583 145.314 40.583 144.807 40.583 144.083V139.521C40.583 138.797 40.583 138.291 40.5107 138.073C40.4383 137.856 40.366 137.711 40.2213 137.639C40.0766 137.566 39.7872 137.494 39.2809 137.494H39.0638V137.204H43.5489V137.494H43.1149C42.6809 137.494 42.3915 137.566 42.2468 137.639C42.1021 137.711 42.0298 137.856 41.9575 138.073C41.8851 138.291 41.8851 138.797 41.8851 139.521V144.373C41.8851 145.025 41.8851 145.459 41.9575 145.604C42.0298 145.749 42.1021 145.894 42.2468 145.966C42.3915 146.038 42.7532 146.111 43.2596 146.111H43.983C44.5617 146.111 44.9958 146.038 45.2851 145.966C45.5745 145.894 45.7915 145.676 46.0809 145.314C46.2979 144.952 46.5872 144.445 46.7319 143.721H47.0936V143.649Z" fill="#D4CA8B"/>
<path d="M55.6298 141.404C56.7149 141.477 57.4383 141.766 57.9447 142.201C58.4511 142.635 58.7404 143.214 58.7404 143.866C58.7404 144.445 58.5957 144.952 58.234 145.387C57.8723 145.821 57.4383 146.111 56.9319 146.183C56.4255 146.328 55.6298 146.401 54.7617 146.401H51.1447V146.111H51.5064C51.8681 146.111 52.1575 146.038 52.3021 145.966C52.4468 145.894 52.5192 145.676 52.5915 145.532C52.6638 145.314 52.6638 144.807 52.6638 144.083V139.594C52.6638 138.87 52.6638 138.363 52.5915 138.146C52.5192 137.928 52.4468 137.784 52.3021 137.711C52.1575 137.639 51.8681 137.566 51.3617 137.566H51.217V137.277L52.7362 137.204L54.4723 137.132C57.0043 137.132 58.3064 137.856 58.3064 139.304C58.3064 139.884 58.0894 140.39 57.6553 140.752C57.1489 141.042 56.4979 141.259 55.6298 141.404ZM53.8936 141.259C54.0383 141.259 54.1106 141.259 54.183 141.259C55.1957 141.259 55.8468 141.115 56.2085 140.825C56.5702 140.535 56.7149 140.028 56.7149 139.304C56.7149 138.797 56.6426 138.435 56.4979 138.146C56.3532 137.856 56.1362 137.711 55.8468 137.566C55.5574 137.422 55.0511 137.349 54.4 137.349C54.2553 137.349 54.0383 137.349 53.8213 137.349V141.259H53.8936ZM53.8936 141.621V143.721C53.8936 144.59 53.8936 145.17 53.966 145.387C54.0383 145.604 54.1106 145.821 54.2553 145.894C54.4 146.038 54.6894 146.111 55.0511 146.111C55.7745 146.111 56.3532 145.894 56.7149 145.532C57.0766 145.17 57.2936 144.59 57.2936 143.866C57.2936 143.07 57.0766 142.563 56.6426 142.201C56.2085 141.839 55.4851 141.621 54.4723 141.621C54.2553 141.549 54.1106 141.549 53.8936 141.621Z" fill="#D4CA8B"/>
<path d="M67.7106 143.649L67.6383 146.401H59.7532V146.111H60.0425C60.4043 146.111 60.6936 146.038 60.8383 145.966C60.983 145.894 61.0553 145.676 61.1277 145.532C61.2 145.314 61.2 144.807 61.2 144.083V139.521C61.2 138.797 61.2 138.291 61.1277 138.073C61.0553 137.856 60.983 137.711 60.8383 137.639C60.6936 137.566 60.4043 137.494 59.8979 137.494H59.6808V137.204H64.166V137.494H63.7319C63.2979 137.494 63.0085 137.566 62.8638 137.639C62.7191 137.711 62.6468 137.856 62.5745 138.073C62.5021 138.291 62.5021 138.797 62.5021 139.521V144.373C62.5021 145.025 62.5021 145.459 62.5745 145.604C62.6468 145.749 62.7191 145.894 62.8638 145.966C63.0085 146.038 63.3702 146.111 63.8766 146.111H64.6C65.1787 146.111 65.6128 146.038 65.9021 145.966C66.1915 145.894 66.4085 145.676 66.6979 145.314C66.9149 144.952 67.2042 144.445 67.3489 143.721H67.7106V143.649Z" fill="#D4CA8B"/>
<path d="M73.8596 142.997H70.3149L70.0979 143.577C69.7362 144.445 69.5915 145.025 69.5915 145.242C69.5915 145.532 69.6638 145.749 69.8808 145.894C70.0979 146.039 70.3149 146.111 70.6042 146.111V146.401H67.8553V146.111C68.2894 146.038 68.5787 145.894 68.7957 145.676C69.0128 145.459 69.2298 144.952 69.5191 144.228C69.5191 144.156 69.6638 143.866 69.8808 143.432L72.5574 136.987H72.8468L75.9574 144.373L76.3915 145.314C76.4638 145.532 76.6085 145.676 76.7532 145.821C76.8979 145.966 77.1872 146.039 77.4766 146.039V146.328H73.8596V146.039C74.2936 146.039 74.583 146.039 74.8 145.966C74.9447 145.894 75.017 145.749 75.017 145.604C75.017 145.532 74.9447 145.17 74.7277 144.735L73.8596 142.997ZM73.7872 142.635L72.1234 138.653L70.4596 142.635H73.7872Z" fill="#D4CA8B"/>
<path d="M85.7957 142.925H86.0851V146.183H85.7957C85.7234 145.821 85.5787 145.459 85.3617 145.17C84.5659 146.111 83.4808 146.545 82.2511 146.545C80.8766 146.545 79.7915 146.111 78.9957 145.242C78.2 144.373 77.6936 143.287 77.6936 141.839C77.6936 140.897 77.9106 140.028 78.2723 139.232C78.634 138.435 79.2128 137.784 79.9362 137.422C80.6596 137.06 81.383 136.842 82.2511 136.842C82.9745 136.842 83.5532 136.987 84.1319 137.277C84.7106 137.566 85.1447 137.856 85.3617 138.218C85.5787 137.856 85.6511 137.422 85.7234 136.987H86.0128L86.0851 140.535H85.7957C85.5787 139.304 85.1447 138.435 84.5659 137.928C83.9149 137.422 83.1915 137.204 82.3957 137.204C81.4553 137.204 80.6596 137.566 80.0808 138.363C79.5021 139.159 79.2128 140.318 79.2128 141.766C79.2128 143.142 79.5021 144.228 80.1532 144.952C80.8042 145.676 81.5276 146.038 82.4681 146.038C82.9745 146.038 83.4808 145.894 83.9872 145.676C84.4936 145.459 84.9277 145.025 85.217 144.445C85.5787 144.011 85.7234 143.432 85.7957 142.925Z" fill="#D4CA8B"/>
<path d="M90.2085 141.839L93.0298 139.304C93.6808 138.725 94.0425 138.291 94.0425 138.073C94.0425 137.711 93.6808 137.494 93.0298 137.494V137.204H96.5021V137.494C96.2128 137.494 95.9234 137.566 95.634 137.711C95.3447 137.856 95.0553 138.001 94.8383 138.146C94.6213 138.363 94.1149 138.725 93.4638 139.377L91.8 140.97L95.2723 144.518C96.0681 145.314 96.5745 145.821 96.8638 145.966C97.1532 146.111 97.5149 146.256 97.8766 146.256V146.545H93.0298V146.256H93.2468C93.7532 146.256 94.1149 146.183 94.1872 146.111C94.2596 146.038 94.4042 145.894 94.4042 145.821C94.4042 145.604 94.0425 145.17 93.3915 144.518L90.7872 141.839L90.1362 142.418V144.083C90.1362 144.807 90.1362 145.314 90.2085 145.532C90.2085 145.749 90.3532 145.894 90.4979 146.038C90.6425 146.183 90.9319 146.183 91.3659 146.183H91.5106V146.473H87.3149V146.183H87.6042C87.9659 146.183 88.2553 146.111 88.4 146.038C88.5447 145.966 88.617 145.749 88.6893 145.604C88.7617 145.387 88.7617 144.88 88.7617 144.156V139.594C88.7617 138.797 88.7617 138.363 88.6893 138.146C88.617 137.928 88.5447 137.784 88.4 137.711C88.2553 137.639 87.8936 137.566 87.3872 137.566V137.277H91.5106V137.566H91.3659C90.9319 137.566 90.6425 137.639 90.4979 137.711C90.3532 137.784 90.2808 137.928 90.2085 138.146C90.1362 138.363 90.1362 138.87 90.1362 139.594V141.839H90.2085Z" fill="#D4CA8B"/>
<path d="M109.451 143.504H109.813L109.596 146.401H101.928V146.111H102.145C102.579 146.111 102.868 146.038 103.013 145.894C103.157 145.749 103.23 145.604 103.302 145.459C103.374 145.242 103.374 144.807 103.374 144.011V139.449C103.374 138.725 103.374 138.291 103.302 138.073C103.23 137.856 103.157 137.711 103.013 137.639C102.868 137.566 102.579 137.494 102.145 137.494V137.204H108.8L109.017 139.521H108.728C108.583 138.87 108.366 138.435 108.221 138.146C108.004 137.856 107.787 137.711 107.498 137.639C107.209 137.566 106.702 137.566 106.051 137.566H104.749V141.477H105.762C106.196 141.477 106.557 141.404 106.702 141.332C106.847 141.259 106.991 141.115 107.064 140.97C107.136 140.825 107.136 140.535 107.136 140.028H107.426V143.214H107.136C107.136 142.708 107.064 142.346 106.991 142.201C106.919 142.056 106.774 141.911 106.63 141.839C106.485 141.766 106.196 141.766 105.762 141.766H104.749V143.939C104.749 145.025 104.821 145.676 104.966 145.894C105.111 146.111 105.472 146.183 106.123 146.183H106.847C107.353 146.183 107.715 146.111 108.077 145.966C108.366 145.821 108.655 145.604 108.945 145.17C109.234 144.735 109.306 144.156 109.451 143.504Z" fill="#D4CA8B"/>
<path d="M111.043 146.328V143.359H111.404C111.766 145.314 112.706 146.256 114.153 146.256C114.804 146.256 115.311 146.038 115.672 145.676C116.034 145.314 116.179 144.88 116.179 144.445C116.179 144.011 116.034 143.576 115.672 143.287C115.383 142.997 114.804 142.635 113.936 142.273C113.213 141.983 112.634 141.694 112.272 141.404C111.911 141.187 111.621 140.825 111.404 140.463C111.187 140.101 111.115 139.666 111.115 139.232C111.115 138.58 111.332 138.001 111.838 137.566C112.272 137.132 112.851 136.915 113.574 136.915C113.936 136.915 114.37 136.987 114.66 137.132C114.949 137.277 115.383 137.494 115.745 137.928C115.962 137.711 116.106 137.422 116.106 137.132H116.396V139.594H116.106C115.962 138.87 115.6 138.363 115.166 137.928C114.732 137.494 114.226 137.349 113.647 137.349C113.068 137.349 112.706 137.494 112.417 137.784C112.128 138.073 112.055 138.435 112.055 138.797C112.055 139.232 112.2 139.594 112.562 139.884C112.851 140.173 113.43 140.535 114.298 140.897C115.094 141.259 115.672 141.549 116.034 141.766C116.396 141.983 116.685 142.273 116.902 142.635C117.119 142.997 117.264 143.432 117.264 143.939C117.264 144.735 116.974 145.387 116.468 145.894C115.962 146.4 115.238 146.618 114.37 146.618C113.357 146.618 112.489 146.256 111.838 145.459C111.694 145.676 111.549 145.966 111.477 146.328H111.043V146.328Z" fill="#D4CA8B"/>
<path d="M118.494 139.304H118.204L118.277 137.06H127.319L127.391 139.304H127.102C127.03 138.725 126.885 138.218 126.668 138.001C126.451 137.711 126.306 137.566 126.089 137.494C125.872 137.422 125.511 137.422 125.004 137.422H123.485V144.011C123.485 144.735 123.485 145.242 123.557 145.459C123.557 145.676 123.702 145.821 123.847 145.966C123.991 146.111 124.281 146.111 124.715 146.111H125.149V146.401H120.519V146.111H121.026C121.387 146.111 121.677 146.038 121.821 145.966C121.966 145.894 122.038 145.676 122.111 145.532C122.183 145.314 122.183 144.808 122.183 144.083V137.494H120.808C120.23 137.494 119.796 137.494 119.579 137.566C119.362 137.639 119.145 137.784 119 138.073C118.711 138.291 118.566 138.725 118.494 139.304Z" fill="#D4CA8B"/>
<path d="M132.528 142.997H128.983L128.766 143.577C128.404 144.445 128.26 145.025 128.26 145.242C128.26 145.532 128.332 145.749 128.549 145.894C128.766 146.039 128.983 146.111 129.272 146.111V146.401H126.523V146.111C126.957 146.038 127.247 145.894 127.464 145.676C127.681 145.459 127.898 144.952 128.187 144.228C128.187 144.156 128.332 143.866 128.549 143.432L131.226 136.987H131.515L134.626 144.373L135.06 145.314C135.132 145.532 135.277 145.676 135.421 145.821C135.566 145.966 135.855 146.039 136.145 146.039V146.328H132.528V146.039C132.962 146.039 133.251 146.039 133.468 145.966C133.613 145.894 133.685 145.749 133.685 145.604C133.685 145.532 133.613 145.17 133.396 144.735L132.528 142.997ZM132.383 142.635L130.719 138.653L129.055 142.635H132.383Z" fill="#D4CA8B"/>
<path d="M135.566 139.304H135.277L135.349 137.06H144.392L144.464 139.304H144.174C144.102 138.725 143.957 138.218 143.74 138.001C143.523 137.711 143.379 137.566 143.162 137.494C142.945 137.422 142.583 137.422 142.077 137.422H140.557V144.011C140.557 144.735 140.557 145.242 140.63 145.459C140.63 145.676 140.774 145.821 140.919 145.966C141.064 146.111 141.353 146.111 141.787 146.111H142.221V146.401H137.447V146.111H137.953C138.315 146.111 138.604 146.038 138.749 145.966C138.894 145.894 138.966 145.676 139.038 145.532C139.111 145.314 139.111 144.808 139.111 144.083V137.494H137.736C137.157 137.494 136.723 137.494 136.506 137.566C136.289 137.639 136.072 137.784 135.928 138.073C135.783 138.291 135.638 138.725 135.566 139.304Z" fill="#D4CA8B"/>
<path d="M152.711 143.504H153.072L152.855 146.401H145.187V146.111H145.404C145.838 146.111 146.128 146.038 146.272 145.894C146.417 145.749 146.489 145.604 146.562 145.459C146.634 145.242 146.634 144.807 146.634 144.011V139.449C146.634 138.725 146.634 138.291 146.562 138.073C146.489 137.856 146.417 137.711 146.272 137.639C146.128 137.566 145.838 137.494 145.404 137.494V137.204H152.06L152.277 139.521H151.987C151.843 138.87 151.626 138.435 151.481 138.146C151.264 137.856 151.047 137.711 150.757 137.639C150.468 137.566 149.962 137.566 149.311 137.566H148.009V141.477H149.021C149.455 141.477 149.817 141.404 149.962 141.332C150.106 141.259 150.251 141.115 150.323 140.97C150.396 140.825 150.396 140.535 150.396 140.028H150.685V143.214H150.396C150.396 142.708 150.323 142.346 150.251 142.201C150.179 142.056 150.034 141.911 149.889 141.839C149.745 141.766 149.455 141.766 149.021 141.766H148.009V143.939C148.009 145.025 148.081 145.676 148.226 145.894C148.37 146.111 148.732 146.183 149.383 146.183H150.106C150.613 146.183 150.974 146.111 151.336 145.966C151.626 145.821 151.915 145.604 152.204 145.17C152.494 144.735 152.494 144.156 152.711 143.504Z" fill="#D4CA8B"/>
<path d="M31.3957 155.162H31.5404V158.131C31.5404 158.348 31.5404 158.566 31.5404 158.566C31.5404 158.638 31.5404 158.71 31.6128 158.71C31.6851 158.71 31.7574 158.783 31.8298 158.783H31.9745V158.928H30.7447V158.783H30.817C30.9617 158.783 31.034 158.783 31.1064 158.71C31.1787 158.638 31.1787 158.638 31.1787 158.566C31.1787 158.493 31.1787 158.348 31.1787 158.131V156.104C31.1787 155.886 31.1787 155.669 31.1787 155.669C31.1787 155.597 31.1787 155.597 31.1064 155.524C31.034 155.452 30.9617 155.452 30.817 155.452H30.6723V155.307C31.034 155.307 31.2511 155.235 31.3957 155.162Z" fill="#D4CA8B"/>
<path d="M34.217 157.045C34.217 156.466 34.3617 155.959 34.5787 155.669C34.7957 155.379 35.0851 155.162 35.4468 155.162C35.8085 155.162 36.0979 155.307 36.3149 155.669C36.5319 156.031 36.6766 156.466 36.6766 157.045C36.6766 157.624 36.5319 158.059 36.3149 158.421C36.0979 158.783 35.8085 158.928 35.4468 158.928C35.0851 158.928 34.7957 158.783 34.5787 158.421C34.3617 158.059 34.217 157.624 34.217 157.045ZM34.6511 157.045C34.6511 157.841 34.7234 158.348 34.8681 158.493C35.0128 158.71 35.1574 158.783 35.3745 158.783C35.6638 158.783 35.8085 158.638 35.9532 158.421C36.0255 158.203 36.0979 157.697 36.0979 156.972C36.0979 156.176 36.0255 155.669 35.8808 155.524C35.7362 155.379 35.5915 155.235 35.3745 155.235C35.1574 155.235 34.9404 155.307 34.8681 155.524C34.7234 155.814 34.6511 156.321 34.6511 157.045Z" fill="#D4CA8B"/>
<path d="M38.3404 157.045C38.3404 156.466 38.4851 155.959 38.7021 155.669C38.9191 155.379 39.2085 155.162 39.5702 155.162C39.9319 155.162 40.2213 155.307 40.4383 155.669C40.6553 156.031 40.8 156.466 40.8 157.045C40.8 157.624 40.6553 158.059 40.4383 158.421C40.2213 158.783 39.9319 158.928 39.5702 158.928C39.2085 158.928 38.9191 158.783 38.7021 158.421C38.4851 158.059 38.3404 157.624 38.3404 157.045ZM38.7745 157.045C38.7745 157.841 38.8468 158.348 38.9915 158.493C39.1362 158.71 39.2808 158.783 39.4979 158.783C39.7872 158.783 39.9319 158.638 40.0766 158.421C40.1489 158.203 40.2213 157.697 40.2213 156.972C40.2213 156.176 40.1489 155.669 40.0043 155.524C39.8596 155.379 39.7149 155.235 39.4979 155.235C39.2808 155.235 39.0638 155.307 38.9915 155.524C38.8468 155.814 38.7745 156.321 38.7745 157.045Z" fill="#D4CA8B"/>
<path d="M47.0213 157.262L47.7447 156.031C47.8894 155.814 47.9617 155.669 47.9617 155.597C47.9617 155.524 47.9617 155.452 47.8894 155.379C47.817 155.307 47.6723 155.307 47.5277 155.307V155.162H48.7575V155.307C48.6128 155.307 48.4681 155.379 48.3234 155.524C48.2511 155.597 48.1064 155.814 47.8894 156.104L47.0213 157.552V158.059C47.0213 158.348 47.0213 158.566 47.0213 158.71C47.0213 158.783 47.0936 158.855 47.166 158.928C47.2383 159 47.383 159 47.5277 159V159.145H45.9362V159H46.0085C46.1532 159 46.2979 159 46.3702 158.928C46.4426 158.855 46.4426 158.855 46.5149 158.71C46.5149 158.638 46.5149 158.421 46.5149 158.131V157.697L45.5745 156.176C45.3575 155.886 45.2851 155.669 45.2128 155.597C45.1404 155.524 45.0681 155.524 44.8511 155.524V155.379H46.3702V155.524C46.0809 155.524 45.9362 155.597 45.9362 155.742C45.9362 155.814 46.0085 155.886 46.0809 156.031L47.0213 157.262Z" fill="#D4CA8B"/>
<path d="M53.2425 157.697H53.3872L53.3149 158.855H50.2043V158.71H50.2766C50.4936 158.71 50.566 158.71 50.6383 158.638C50.7106 158.565 50.7106 158.493 50.7106 158.421C50.7106 158.348 50.7106 158.131 50.7106 157.841V155.959C50.7106 155.669 50.7106 155.452 50.7106 155.379C50.7106 155.307 50.6383 155.235 50.566 155.162C50.4936 155.162 50.4213 155.09 50.2043 155.09V154.945H52.8808L52.9532 155.886H52.8085C52.7362 155.597 52.6638 155.452 52.5915 155.307C52.5191 155.162 52.3745 155.162 52.3021 155.09C52.2298 155.017 52.0851 155.235 51.7957 155.235H51.2894V156.828H51.7234C51.9404 156.828 52.0128 156.828 52.0851 156.755C52.1574 156.755 52.2298 156.683 52.2298 156.61C52.2298 156.538 52.2298 156.393 52.2298 156.248H52.3745V157.552H52.2298C52.2298 157.334 52.2298 157.19 52.1574 157.117C52.1574 157.045 52.0851 156.972 52.0128 156.972C51.9404 156.972 51.7957 156.972 51.6511 156.972H51.217V157.841C51.217 158.276 51.217 158.565 51.2894 158.638C51.3617 158.71 51.5064 158.783 51.7234 158.783H52.0128C52.2298 158.783 52.3745 158.783 52.5191 158.71C52.6638 158.638 52.7362 158.565 52.8808 158.421C53.0979 158.203 53.1702 157.986 53.2425 157.697Z" fill="#D4CA8B"/>
<path d="M57.2936 157.479H55.8468L55.7744 157.697C55.6298 158.059 55.5574 158.276 55.5574 158.348C55.5574 158.493 55.6298 158.566 55.7021 158.638C55.7744 158.71 55.8468 158.71 55.9915 158.71V158.855H54.834V158.71C54.9787 158.71 55.1234 158.638 55.1957 158.566C55.2681 158.493 55.3404 158.276 55.4851 157.986C55.4851 157.986 55.5574 157.841 55.6298 157.697L56.7149 155.09H56.8595L58.1617 158.131L58.3064 158.493C58.3787 158.566 58.3787 158.638 58.451 158.71C58.5234 158.783 58.5957 158.783 58.7404 158.783V158.928H57.2212V158.783C57.4383 158.783 57.5106 158.783 57.5829 158.71C57.6553 158.71 57.6553 158.638 57.6553 158.566C57.6553 158.493 57.5829 158.421 57.5106 158.204L57.2936 157.479ZM57.2212 157.407L56.5702 155.814L55.9191 157.407H57.2212Z" fill="#D4CA8B"/>
<path d="M64.0936 158.928H63.0808C62.8638 158.783 62.6468 158.493 62.2851 157.914C62.1404 157.769 62.0681 157.552 61.9234 157.407C61.7787 157.262 61.7064 157.117 61.634 157.117C61.5617 157.117 61.4894 157.045 61.417 157.045H61.2723V157.914C61.2723 158.204 61.2723 158.421 61.2723 158.493C61.2723 158.566 61.3447 158.638 61.417 158.71C61.4894 158.783 61.5617 158.783 61.7787 158.783H61.9957V158.928H60.1872V158.783H60.3319C60.4766 158.783 60.6213 158.783 60.6936 158.71C60.766 158.638 60.766 158.638 60.8383 158.493C60.8383 158.421 60.8383 158.204 60.8383 157.914V156.031C60.8383 155.742 60.8383 155.524 60.8383 155.452C60.8383 155.38 60.766 155.307 60.6936 155.235C60.6213 155.235 60.4766 155.162 60.3319 155.162H60.2596V155.017H60.8383C61.2 155.017 61.4894 155.017 61.7064 155.017C62.0681 155.017 62.3574 155.017 62.5745 155.09C62.7915 155.162 63.0085 155.235 63.1532 155.452C63.2979 155.597 63.3702 155.814 63.3702 156.031C63.3702 156.248 63.2979 156.466 63.0808 156.683C62.8638 156.828 62.6468 156.973 62.2851 157.045C62.4298 157.117 62.7191 157.407 63.0808 157.841C63.3702 158.204 63.5872 158.493 63.7319 158.566C63.8766 158.638 64.0936 158.783 64.3106 158.783V158.928H64.0936ZM61.2723 156.973C61.417 156.973 61.5617 156.973 61.7064 156.973C61.8511 156.973 61.9957 156.973 62.0681 156.9C62.2128 156.9 62.2851 156.828 62.3574 156.755C62.4298 156.683 62.5021 156.61 62.5021 156.466C62.5021 156.321 62.5745 156.248 62.5745 156.104C62.5745 155.814 62.5021 155.597 62.3574 155.452C62.2128 155.307 61.9234 155.235 61.4894 155.235C61.417 155.235 61.3447 155.235 61.2723 155.235V156.973Z" fill="#D4CA8B"/>
<path d="M65.6851 158.855V157.624H65.8298C65.9744 158.421 66.3361 158.783 66.9872 158.783C67.2766 158.783 67.4936 158.71 67.6383 158.565C67.783 158.421 67.8553 158.276 67.8553 158.059C67.8553 157.841 67.783 157.697 67.6383 157.552C67.4936 157.407 67.2766 157.262 66.9149 157.117C66.6255 156.972 66.4085 156.9 66.1915 156.755C66.0468 156.683 65.9021 156.538 65.8298 156.393C65.7574 156.248 65.6851 156.104 65.6851 155.886C65.6851 155.597 65.7574 155.379 65.9744 155.235C66.1915 155.09 66.4085 154.945 66.6979 154.945C66.8425 154.945 66.9872 154.945 67.1319 155.017C67.2766 155.09 67.4213 155.162 67.5659 155.307C67.6383 155.235 67.7106 155.09 67.7106 154.945H67.8553V155.959H67.7106C67.6383 155.669 67.4936 155.452 67.3489 155.307C67.2042 155.162 66.9872 155.09 66.6979 155.09C66.4808 155.09 66.3362 155.162 66.1915 155.307C66.1191 155.452 66.0468 155.597 66.0468 155.741C66.0468 155.886 66.1191 156.031 66.2638 156.176C66.4085 156.321 66.6255 156.466 66.9872 156.61C67.3489 156.755 67.5659 156.9 67.7106 156.972C67.8553 157.045 68 157.19 68.0723 157.334C68.1447 157.479 68.217 157.697 68.217 157.914C68.217 158.203 68.1447 158.493 67.9276 158.71C67.7106 158.928 67.4213 159 67.0596 159C66.6255 159 66.2638 158.855 66.0468 158.493C65.9745 158.565 65.9744 158.71 65.9021 158.855H65.6851V158.855Z" fill="#D4CA8B"/>
<path d="M72.7021 156.973C72.7021 156.393 72.9191 155.886 73.2808 155.524C73.6425 155.162 74.1489 155.017 74.7276 155.017C75.3064 155.017 75.8128 155.162 76.1745 155.524C76.5362 155.886 76.7532 156.321 76.7532 156.973C76.7532 157.552 76.5362 158.059 76.1745 158.421C75.8128 158.783 75.3064 159 74.6553 159C74.0766 159 73.5702 158.783 73.1362 158.421C72.9191 158.059 72.7021 157.552 72.7021 156.973ZM73.3532 156.973C73.3532 157.552 73.4979 158.059 73.7149 158.348C73.9319 158.638 74.2936 158.783 74.8 158.783C75.234 158.783 75.5957 158.638 75.8128 158.348C76.0298 158.059 76.1745 157.552 76.1745 156.973C76.1745 156.393 76.0298 155.959 75.8128 155.597C75.5957 155.307 75.234 155.09 74.7276 155.09C74.2936 155.09 73.9319 155.235 73.6425 155.524C73.4255 155.959 73.3532 156.393 73.3532 156.973Z" fill="#D4CA8B"/>
<path d="M81.4553 155.09V156.031H81.3106C81.3106 155.814 81.2383 155.669 81.1659 155.524C81.0936 155.379 80.9489 155.307 80.8766 155.235C80.8042 155.235 80.5872 155.162 80.3702 155.162H79.6468V156.755H80.0085C80.2255 156.755 80.3702 156.683 80.4425 156.61C80.5149 156.538 80.5872 156.393 80.5872 156.176H80.7319V157.479H80.5872C80.5872 157.335 80.5872 157.19 80.5149 157.117C80.5149 157.045 80.4425 156.972 80.3702 156.9C80.2979 156.9 80.1532 156.828 80.0085 156.828H79.6468V157.769C79.6468 158.059 79.6468 158.276 79.6468 158.348C79.6468 158.421 79.7191 158.493 79.7915 158.566C79.8638 158.638 79.9362 158.638 80.1532 158.638H80.2979V158.783H78.5617V158.638H78.7064C78.851 158.638 78.9957 158.638 79.0681 158.566C79.1404 158.493 79.1404 158.493 79.2127 158.348C79.2851 158.203 79.2127 158.059 79.2127 157.769V155.886C79.2127 155.597 79.2127 155.379 79.2127 155.307C79.2127 155.235 79.1404 155.162 79.0681 155.09C78.9957 155.09 78.851 155.017 78.7064 155.017H78.634V154.873H81.4553V155.09Z" fill="#D4CA8B"/>
<path d="M88.7617 156.972H86.8085V157.914C86.8085 158.203 86.8085 158.421 86.8085 158.493C86.8085 158.565 86.8808 158.638 86.9532 158.71C87.0255 158.783 87.0979 158.783 87.3149 158.783H87.3872V158.928H85.6511V158.783H85.7234C85.8681 158.783 86.0128 158.783 86.0851 158.71C86.1574 158.638 86.1574 158.638 86.2298 158.493C86.3021 158.348 86.2298 158.203 86.2298 157.914V156.031C86.2298 155.741 86.2298 155.524 86.2298 155.452C86.2298 155.379 86.1574 155.307 86.0851 155.235C86.0128 155.235 85.8681 155.162 85.7234 155.162H85.6511V155.017H87.3872V155.162H87.3149C87.0979 155.162 87.0255 155.162 86.9532 155.235C86.8808 155.235 86.8808 155.307 86.8085 155.379C86.7362 155.452 86.8085 155.669 86.8085 155.959V156.683H88.7617V155.959C88.7617 155.669 88.7617 155.452 88.7617 155.379C88.7617 155.307 88.6894 155.235 88.617 155.162C88.5447 155.162 88.4 155.09 88.2553 155.09H88.183V154.945H89.9191V155.09H89.8468C89.6298 155.09 89.5574 155.09 89.4851 155.162C89.4128 155.162 89.4128 155.235 89.3404 155.307C89.3404 155.379 89.3404 155.597 89.3404 155.886V157.769C89.3404 158.059 89.3404 158.276 89.3404 158.348C89.3404 158.421 89.4128 158.493 89.4851 158.565C89.5574 158.638 89.6298 158.638 89.8468 158.638H89.9191V158.783H88.183V158.638H88.3277C88.4723 158.638 88.617 158.638 88.6894 158.565C88.7617 158.493 88.7617 158.493 88.834 158.348C88.834 158.276 88.834 158.059 88.834 157.769V156.972H88.7617Z" fill="#D4CA8B"/>
<path d="M91.4383 155.235V155.09H93.1745V155.235H93.1021C92.8851 155.235 92.8128 155.235 92.7404 155.307C92.6681 155.307 92.6681 155.379 92.5957 155.452C92.5957 155.524 92.5957 155.742 92.5957 156.031V157.914C92.5957 158.203 92.5957 158.421 92.5957 158.493C92.5957 158.566 92.6681 158.638 92.7404 158.71C92.8128 158.783 92.8851 158.783 93.1021 158.783H93.2468V158.928H91.5106V158.783H91.6553C91.8 158.783 91.9447 158.783 92.017 158.71C92.0894 158.638 92.0894 158.638 92.1617 158.493C92.1617 158.421 92.1617 158.203 92.1617 157.914V156.031C92.1617 155.742 92.1617 155.524 92.1617 155.452C92.1617 155.379 92.0894 155.307 92.017 155.235C91.9447 155.235 91.8 155.162 91.6553 155.162H91.4383V155.235Z" fill="#D4CA8B"/>
<path d="M94.9106 158.855V157.624H95.0553C95.2 158.421 95.5617 158.783 96.2128 158.783C96.5021 158.783 96.7192 158.71 96.8638 158.565C97.0085 158.421 97.0809 158.276 97.0809 158.059C97.0809 157.841 97.0085 157.697 96.8638 157.552C96.7192 157.407 96.5021 157.262 96.1404 157.117C95.8511 156.972 95.634 156.9 95.417 156.755C95.2723 156.683 95.1277 156.538 95.0553 156.393C94.983 156.248 94.9106 156.104 94.9106 155.886C94.9106 155.597 94.983 155.379 95.2 155.235C95.417 155.09 95.6341 154.945 95.9234 154.945C96.0681 154.945 96.2128 154.945 96.3575 155.017C96.5021 155.09 96.6468 155.162 96.7915 155.307C96.8638 155.235 96.9362 155.09 96.9362 154.945H97.0809V155.959H96.9362C96.8638 155.669 96.7192 155.452 96.5745 155.307C96.4298 155.162 96.2128 155.09 95.9234 155.09C95.7064 155.09 95.5617 155.162 95.417 155.307C95.2723 155.452 95.2723 155.597 95.2723 155.741C95.2723 155.886 95.3447 156.031 95.4894 156.176C95.6341 156.321 95.8511 156.466 96.2128 156.61C96.5745 156.755 96.7915 156.9 96.9362 156.972C97.0809 157.045 97.2255 157.19 97.2979 157.334C97.3702 157.479 97.4426 157.697 97.4426 157.914C97.4426 158.203 97.3702 158.493 97.1532 158.71C96.9362 158.928 96.6468 159 96.2851 159C95.8511 159 95.4894 158.855 95.2723 158.493C95.2 158.565 95.2 158.71 95.1277 158.855H94.9106V158.855Z" fill="#D4CA8B"/>
<path d="M99.1787 156.031H99.034V155.09H102.723V156.031H102.579C102.506 155.814 102.506 155.597 102.434 155.524C102.362 155.379 102.289 155.379 102.217 155.307C102.145 155.307 102 155.235 101.783 155.235H101.204V157.914C101.204 158.203 101.204 158.421 101.204 158.493C101.204 158.566 101.277 158.638 101.349 158.71C101.421 158.783 101.494 158.783 101.711 158.783H101.928V158.928H100.047V158.783H100.264C100.409 158.783 100.553 158.783 100.626 158.71C100.698 158.638 100.698 158.638 100.77 158.493C100.843 158.348 100.77 158.203 100.77 157.914V155.235H100.191C99.9745 155.235 99.7574 155.235 99.6851 155.235C99.6128 155.235 99.5404 155.307 99.4681 155.452C99.2511 155.597 99.2511 155.742 99.1787 156.031Z" fill="#D4CA8B"/>
<path d="M104.17 156.973C104.17 156.393 104.387 155.886 104.749 155.524C105.111 155.162 105.617 155.017 106.196 155.017C106.774 155.017 107.281 155.162 107.643 155.524C108.004 155.886 108.221 156.321 108.221 156.973C108.221 157.552 108.004 158.059 107.643 158.421C107.281 158.783 106.774 159 106.123 159C105.545 159 105.038 158.783 104.604 158.421C104.387 158.059 104.17 157.552 104.17 156.973ZM104.821 156.973C104.821 157.552 104.966 158.059 105.183 158.348C105.4 158.638 105.762 158.783 106.268 158.783C106.702 158.783 107.064 158.638 107.281 158.348C107.498 158.059 107.643 157.552 107.643 156.973C107.643 156.393 107.498 155.959 107.281 155.597C107.064 155.235 106.702 155.09 106.196 155.09C105.762 155.09 105.4 155.235 105.111 155.524C104.966 155.959 104.821 156.393 104.821 156.973Z" fill="#D4CA8B"/>
<path d="M114.009 158.928H112.996C112.851 158.783 112.562 158.493 112.2 157.914C112.055 157.769 111.983 157.552 111.838 157.407C111.694 157.262 111.621 157.117 111.549 157.117C111.477 157.117 111.404 157.045 111.332 157.045H111.187V157.914C111.187 158.204 111.187 158.421 111.187 158.493C111.187 158.566 111.26 158.638 111.332 158.71C111.404 158.783 111.477 158.783 111.694 158.783H111.911V158.928H109.957V158.783H110.102C110.247 158.783 110.391 158.783 110.464 158.71C110.536 158.638 110.536 158.638 110.609 158.493C110.681 158.348 110.609 158.204 110.609 157.914V156.031C110.609 155.742 110.609 155.524 110.609 155.452C110.609 155.38 110.536 155.307 110.464 155.235C110.391 155.235 110.247 155.162 110.102 155.162H110.03V155.017H110.609C110.97 155.017 111.26 155.017 111.477 155.017C111.838 155.017 112.128 155.017 112.345 155.09C112.562 155.162 112.779 155.235 112.923 155.452C113.068 155.597 113.14 155.814 113.14 156.031C113.14 156.248 113.068 156.466 112.851 156.683C112.634 156.828 112.417 156.973 112.055 157.045C112.2 157.117 112.489 157.407 112.851 157.841C113.14 158.204 113.357 158.493 113.502 158.566C113.647 158.71 113.864 158.783 114.081 158.783V158.928H114.009ZM111.115 156.973C111.26 156.973 111.404 156.973 111.549 156.973C111.694 156.973 111.838 156.973 111.911 156.9C112.055 156.9 112.128 156.828 112.2 156.755C112.272 156.683 112.345 156.61 112.345 156.466C112.417 156.393 112.417 156.248 112.417 156.104C112.417 155.814 112.345 155.597 112.2 155.452C112.055 155.307 111.766 155.235 111.332 155.235C111.26 155.235 111.187 155.235 111.115 155.235V156.973V156.973Z" fill="#D4CA8B"/>
<path d="M116.685 157.262L117.409 156.031C117.553 155.814 117.626 155.669 117.626 155.597C117.626 155.524 117.626 155.452 117.553 155.379C117.481 155.307 117.336 155.307 117.191 155.307V155.162H118.421V155.307C118.277 155.307 118.132 155.379 117.987 155.524C117.915 155.597 117.77 155.814 117.553 156.104L116.685 157.552V158.059C116.685 158.348 116.685 158.566 116.685 158.71C116.685 158.783 116.757 158.855 116.83 158.928C116.902 159 117.047 159 117.191 159V159.145H115.6V159H115.672C115.817 159 115.962 159 116.034 158.928C116.106 158.855 116.106 158.855 116.179 158.71C116.179 158.638 116.179 158.421 116.179 158.131V157.697L115.238 156.176C115.021 155.886 114.949 155.669 114.877 155.597C114.804 155.524 114.732 155.524 114.515 155.524V155.379H116.034V155.524C115.745 155.524 115.6 155.597 115.6 155.742C115.6 155.814 115.672 155.886 115.745 156.031L116.685 157.262Z" fill="#D4CA8B"/>
<defs>
<linearGradient id="paint0_linear" x1="24.8201" y1="5.25472" x2="24.8201" y2="184.04" gradientUnits="userSpaceOnUse">
<stop stop-color="#E5C67D"/>
<stop offset="1" stop-color="#A78C50"/>
</linearGradient>
<linearGradient id="paint1_linear" x1="125.025" y1="5.25472" x2="125.025" y2="184.04" gradientUnits="userSpaceOnUse">
<stop stop-color="#E5C67D"/>
<stop offset="1" stop-color="#A78C50"/>
</linearGradient>
<linearGradient id="paint2_linear" x1="13.6472" y1="5.2546" x2="13.6472" y2="184.041" gradientUnits="userSpaceOnUse">
<stop stop-color="#E5C67D"/>
<stop offset="1" stop-color="#A78C50"/>
</linearGradient>
<linearGradient id="paint3_linear" x1="136.141" y1="5.2546" x2="136.141" y2="184.041" gradientUnits="userSpaceOnUse">
<stop stop-color="#E5C67D"/>
<stop offset="1" stop-color="#A78C50"/>
</linearGradient>
<linearGradient id="paint4_linear" x1="74.2659" y1="5.2512" x2="74.2659" y2="184.042" gradientUnits="userSpaceOnUse">
<stop stop-color="#E5C67D"/>
<stop offset="1" stop-color="#A78C50"/>
</linearGradient>
<linearGradient id="paint5_linear" x1="74.2659" y1="5.25145" x2="74.2659" y2="184.04" gradientUnits="userSpaceOnUse">
<stop stop-color="#E5C67D"/>
<stop offset="1" stop-color="#A78C50"/>
</linearGradient>
<linearGradient id="paint6_linear" x1="74.2659" y1="5.25116" x2="74.2659" y2="184.042" gradientUnits="userSpaceOnUse">
<stop stop-color="#E5C67D"/>
<stop offset="1" stop-color="#A78C50"/>
</linearGradient>
<linearGradient id="paint7_linear" x1="119.036" y1="5.25122" x2="119.036" y2="184.042" gradientUnits="userSpaceOnUse">
<stop stop-color="#E5C67D"/>
<stop offset="1" stop-color="#A78C50"/>
</linearGradient>
<linearGradient id="paint8_linear" x1="100.61" y1="5.25115" x2="100.61" y2="184.042" gradientUnits="userSpaceOnUse">
<stop stop-color="#E5C67D"/>
<stop offset="1" stop-color="#A78C50"/>
</linearGradient>
<linearGradient id="paint9_linear" x1="116.939" y1="5.25079" x2="116.939" y2="184.042" gradientUnits="userSpaceOnUse">
<stop stop-color="#E5C67D"/>
<stop offset="1" stop-color="#A78C50"/>
</linearGradient>
<linearGradient id="paint10_linear" x1="138.333" y1="5.25118" x2="138.333" y2="184.042" gradientUnits="userSpaceOnUse">
<stop stop-color="#E5C67D"/>
<stop offset="1" stop-color="#A78C50"/>
</linearGradient>
<linearGradient id="paint11_linear" x1="129.329" y1="5.25123" x2="129.329" y2="184.042" gradientUnits="userSpaceOnUse">
<stop stop-color="#E5C67D"/>
<stop offset="1" stop-color="#A78C50"/>
</linearGradient>
<linearGradient id="paint12_linear" x1="120.697" y1="5.25128" x2="120.697" y2="184.042" gradientUnits="userSpaceOnUse">
<stop stop-color="#E5C67D"/>
<stop offset="1" stop-color="#A78C50"/>
</linearGradient>
<linearGradient id="paint13_linear" x1="29.1465" y1="5.25125" x2="29.1465" y2="184.042" gradientUnits="userSpaceOnUse">
<stop stop-color="#E5C67D"/>
<stop offset="1" stop-color="#A78C50"/>
</linearGradient>
<linearGradient id="paint14_linear" x1="47.5718" y1="5.25115" x2="47.5718" y2="184.042" gradientUnits="userSpaceOnUse">
<stop stop-color="#E5C67D"/>
<stop offset="1" stop-color="#A78C50"/>
</linearGradient>
<linearGradient id="paint15_linear" x1="31.2431" y1="5.25079" x2="31.2431" y2="184.042" gradientUnits="userSpaceOnUse">
<stop stop-color="#E5C67D"/>
<stop offset="1" stop-color="#A78C50"/>
</linearGradient>
<linearGradient id="paint16_linear" x1="9.84855" y1="5.25118" x2="9.84855" y2="184.042" gradientUnits="userSpaceOnUse">
<stop stop-color="#E5C67D"/>
<stop offset="1" stop-color="#A78C50"/>
</linearGradient>
<linearGradient id="paint17_linear" x1="18.8528" y1="5.25135" x2="18.8528" y2="184.042" gradientUnits="userSpaceOnUse">
<stop stop-color="#E5C67D"/>
<stop offset="1" stop-color="#A78C50"/>
</linearGradient>
<linearGradient id="paint18_linear" x1="27.4852" y1="5.2513" x2="27.4852" y2="184.042" gradientUnits="userSpaceOnUse">
<stop stop-color="#E5C67D"/>
<stop offset="1" stop-color="#A78C50"/>
</linearGradient>
<linearGradient id="paint19_linear" x1="74.2659" y1="5.25124" x2="74.2659" y2="184.041" gradientUnits="userSpaceOnUse">
<stop stop-color="#E5C67D"/>
<stop offset="1" stop-color="#A78C50"/>
</linearGradient>
<linearGradient id="paint20_linear" x1="61.7164" y1="5.25117" x2="61.7164" y2="184.042" gradientUnits="userSpaceOnUse">
<stop stop-color="#E5C67D"/>
<stop offset="1" stop-color="#A78C50"/>
</linearGradient>
<linearGradient id="paint21_linear" x1="59.8336" y1="5.25084" x2="59.8336" y2="184.043" gradientUnits="userSpaceOnUse">
<stop stop-color="#E5C67D"/>
<stop offset="1" stop-color="#A78C50"/>
</linearGradient>
<linearGradient id="paint22_linear" x1="53.8194" y1="5.25109" x2="53.8194" y2="184.041" gradientUnits="userSpaceOnUse">
<stop stop-color="#E5C67D"/>
<stop offset="1" stop-color="#A78C50"/>
</linearGradient>
<linearGradient id="paint23_linear" x1="85.9596" y1="5.25136" x2="85.9596" y2="184.042" gradientUnits="userSpaceOnUse">
<stop stop-color="#E5C67D"/>
<stop offset="1" stop-color="#A78C50"/>
</linearGradient>
<linearGradient id="paint24_linear" x1="81.7662" y1="63.2711" x2="96.7339" y2="63.2711" gradientUnits="userSpaceOnUse">
<stop stop-color="#E5C67D"/>
<stop offset="1" stop-color="#D4CA8B"/>
</linearGradient>
<linearGradient id="paint25_linear" x1="56.5048" y1="91.5794" x2="67.3752" y2="91.5794" gradientUnits="userSpaceOnUse">
<stop stop-color="#E5C67D"/>
<stop offset="1" stop-color="#D4CA8B"/>
</linearGradient>
</defs>
</svg>
