<svg width="147" height="51" viewBox="0 0 147 51" fill="none" xmlns="http://www.w3.org/2000/svg">
<path fill-rule="evenodd" clip-rule="evenodd" d="M66.5594 11.0895C66.4609 11.5381 66.0199 13.3131 65.8569 13.8306H57.9153V13.348C59.4351 13.2267 59.5493 13.0713 59.5493 11.6585V4.85084C59.5493 3.3167 59.3698 3.23031 58.1445 3.10901V2.6273H63.1441C64.6805 2.6273 65.3175 2.60984 65.5136 2.59326C65.5301 3.02348 65.5955 4.3159 65.6609 5.22958L65.1702 5.31597C65.0238 4.72954 64.86 4.36826 64.6805 4.0061C64.419 3.43713 64.0426 3.3167 63.0622 3.3167H61.5101C61.0038 3.3167 60.9707 3.36819 60.9707 3.86822V7.6774H62.785C64.0103 7.6774 64.0922 7.41909 64.2883 6.24623H64.7946V9.79797H64.2883C64.0757 8.55617 63.945 8.38338 62.7685 8.38338H60.9707V11.8138C60.9707 13.0198 61.3306 13.1237 62.1471 13.1411H63.667C64.6639 13.1411 64.8269 12.9858 65.1868 12.5373C65.497 12.176 65.8404 11.4691 66.0696 10.9525L66.5594 11.0895Z" fill="#231F20"/>
<path fill-rule="evenodd" clip-rule="evenodd" d="M72.6623 8.25154C72.3515 7.27664 71.9016 6.60459 70.8468 6.60459C70.2419 6.60459 69.7754 7.02568 69.7754 7.69774C69.7754 8.41913 70.2761 8.75601 71.2442 9.19242C72.7314 9.88149 73.4746 10.386 73.4746 11.4953C73.4746 13.0401 72.0224 13.8304 70.6568 13.8304C69.7579 13.8304 68.9622 13.5608 68.5989 13.3592C68.5131 12.8726 68.3573 11.9487 68.2881 11.3932L68.7897 11.3098C69.1005 12.3851 69.7062 13.2588 70.9159 13.2588C71.5733 13.2588 72.1266 12.8215 72.1266 12.1163C72.1266 11.36 71.6591 10.9738 70.7435 10.5374C69.5329 9.96571 68.5473 9.42806 68.5473 8.21837C68.5473 6.99166 69.6196 6.05078 71.2442 6.05078C71.9707 6.05078 72.5581 6.21837 72.9039 6.26941C72.9555 6.67264 73.0772 7.73092 73.1638 8.13415L72.6623 8.25154Z" fill="#231F20"/>
<path fill-rule="evenodd" clip-rule="evenodd" d="M78.3027 13.6058C77.9885 13.7614 77.6913 13.8304 77.5066 13.8304C76.3213 13.8304 75.6912 13.1566 75.6912 11.7759V6.75377H74.414L74.339 6.54666C74.339 6.54666 75.393 5.88514 76.0231 5.12574C76.6064 4.4214 76.763 3.62268 76.9327 3.45752L77.2102 3.4916C77.1727 4.21692 77.154 5.2175 77.154 6.04681H79.2657C79.4326 6.21896 79.3773 6.59822 79.155 6.75377H77.154V11.1721C77.154 12.5694 77.7475 12.8289 78.2286 12.8289C78.6731 12.8289 79.0997 12.6743 79.3585 12.5528L79.5254 13.002L78.3027 13.6058Z" fill="#231F20"/>
<path fill-rule="evenodd" clip-rule="evenodd" d="M92.1332 13.6058C91.819 13.7614 91.5218 13.8304 91.3371 13.8304C90.1518 13.8304 89.5217 13.1566 89.5217 11.7759V6.75377H88.2445L88.1695 6.54666C88.1695 6.54666 89.2235 5.88514 89.8536 5.12574C90.4369 4.4214 90.5935 3.62268 90.7632 3.45752L91.0407 3.4916C91.0032 4.21692 90.9845 5.2175 90.9845 6.04681H93.0962C93.2631 6.21896 93.2078 6.59822 92.9855 6.75377H90.9845V11.1721C90.9845 12.5694 91.578 12.8289 92.0591 12.8289C92.5036 12.8289 92.9302 12.6743 93.189 12.5528L93.3559 13.002L92.1332 13.6058Z" fill="#231F20"/>
<path fill-rule="evenodd" clip-rule="evenodd" d="M84.5598 9.57917C84.1771 9.76379 83.3431 10.1169 82.9438 10.2845C82.284 10.5703 81.8837 10.8894 81.8837 11.5113C81.8837 12.4021 82.5796 12.8054 83.1347 12.8054C83.5868 12.8054 84.2123 12.5365 84.5598 12.2005V9.57917ZM85.8281 13.8304C85.5677 13.8304 85.185 13.696 85.0109 13.5114C84.7856 13.2927 84.681 13.0571 84.5948 12.7542C83.8998 13.2085 83.0483 13.8304 82.509 13.8304C81.2757 13.8304 80.3898 12.8384 80.3898 11.763C80.3898 10.9403 80.8587 10.4026 81.8141 10.0835C82.8741 9.73047 84.1769 9.29316 84.5596 8.99113V8.65506C84.5596 7.46225 83.9341 6.77225 83.0307 6.77225C82.6313 6.77225 82.3876 6.95773 82.2134 7.15937C82.0225 7.39504 81.9011 7.76428 81.7446 8.25093C81.6583 8.52064 81.5018 8.63805 81.2414 8.63805C80.9106 8.63805 80.476 8.30198 80.476 7.89786C80.476 7.66304 80.7021 7.46225 81.0496 7.22658C81.5537 6.8735 82.5618 6.25242 83.5514 6.05078C84.0731 6.05078 84.6115 6.20137 85.0109 6.50425C85.6196 7.00878 85.8976 7.57881 85.8976 8.45342V11.6958C85.8976 12.4692 86.1923 12.7048 86.5054 12.7048C86.7139 12.7048 86.94 12.6206 87.1309 12.5194L87.3051 12.9907L85.8281 13.8304Z" fill="#231F20"/>
<path fill-rule="evenodd" clip-rule="evenodd" d="M97.8002 6.68881C96.9329 6.68881 96.0857 7.41191 95.8214 8.77218C96.8766 8.77218 97.9318 8.77218 99.0443 8.72284C99.383 8.72284 99.4956 8.63777 99.4956 8.38596C99.5147 7.49528 98.8554 6.68881 97.8002 6.68881V6.68881ZM101.041 12.2005C99.8352 13.5446 98.5157 13.8304 97.9127 13.8304C95.6143 13.8304 94.2203 12.1495 94.2203 10.2175C94.2203 9.07502 94.6716 8.01675 95.4444 7.27664C96.2363 6.48804 97.2725 6.05078 98.2523 6.05078C99.8915 6.05078 101.136 7.31067 101.136 8.65563C101.117 8.9908 101.06 9.14223 100.759 9.20943C100.382 9.27664 97.9699 9.42806 95.7278 9.49527C95.6706 11.7462 97.2162 12.6701 98.5538 12.6701C99.3266 12.6701 100.042 12.3851 100.74 11.8134L101.041 12.2005Z" fill="#231F20"/>
<mask id="mask0" mask-type="alpha" maskUnits="userSpaceOnUse" x="0" y="4" width="37" height="47">
<path fill-rule="evenodd" clip-rule="evenodd" d="M0 4.33496H36.549V50.1088H0V4.33496Z" fill="white"/>
</mask>
<g mask="url(#mask0)">
<path fill-rule="evenodd" clip-rule="evenodd" d="M18.6998 47.5731C13.6704 47.5731 12.4668 46.3061 12.4668 41.2356V26.9399H15.8669C24.5079 26.9399 29.6081 30.0387 29.6081 37.2209C29.6081 44.6159 24.2247 47.5731 18.6998 47.5731V47.5731ZM12.4668 11.0252C12.4668 8.77101 12.6792 7.99763 13.2456 7.57442C13.9545 7.08171 15.2288 6.86967 17.2121 6.86967C24.0123 6.86967 27.0585 10.6732 27.0585 15.6021C27.0585 21.3774 23.8707 24.4753 16.0793 24.4753H12.4668V11.0252ZM24.2248 25.3201C28.1913 24.3347 33.6455 21.3062 33.6455 14.6872C33.6455 11.0957 31.9454 8.48958 29.4666 6.7994C27.1992 5.25 23.8708 4.33496 18.5582 4.33496H0V6.30669C5.73738 6.7994 6.37545 7.29299 6.37545 13.1369V41.3763C6.37545 46.9396 6.02057 47.5731 0 48.137V50.1088H17.4254C22.3831 50.1088 25.9956 49.404 29.679 47.3619C33.8579 45.1086 36.5491 41.3059 36.5491 36.5178C36.5491 29.6867 31.025 26.4472 24.2248 25.3201V25.3201Z" fill="#231F20"/>
</g>
<mask id="mask1" mask-type="alpha" maskUnits="userSpaceOnUse" x="37" y="0" width="17" height="51">
<path fill-rule="evenodd" clip-rule="evenodd" d="M37.3705 0.431885H53.5834V50.9658H37.3705V0.431885Z" fill="white"/>
</mask>
<g mask="url(#mask1)">
<path fill-rule="evenodd" clip-rule="evenodd" d="M48.3981 43.5859V10.4128V0.431152C46.0605 1.27503 41.533 2.39991 37.5895 2.82142V4.6488C42.2629 5.21168 42.6288 5.6323 42.6288 9.9202V43.5859C42.6288 48.2241 42.0449 48.5763 37.3705 48.9978V50.9656H53.5834V48.9978C48.8361 48.5763 48.3981 48.2241 48.3981 43.5859" fill="#231F20"/>
</g>
<path fill-rule="evenodd" clip-rule="evenodd" d="M72.523 44.1182C71.0893 45.5382 68.5095 46.6727 66.646 46.6727C64.3526 46.6727 61.4853 44.97 61.4853 41.21C61.4853 38.5854 63.1339 37.2363 65.8579 36.0309C67.5056 35.3218 70.946 33.8318 72.523 33.0517V44.1182ZM80.5503 46.2464C79.2599 46.2464 78.0421 45.2536 78.0421 41.9909V28.2981C78.0421 24.609 76.895 22.1971 74.3867 20.0681C72.7382 18.7917 70.5165 18.1526 68.3664 18.1526C64.2813 19.0044 60.1236 21.6299 58.0461 23.1199C56.6115 24.1126 55.6802 24.9644 55.6802 25.9572C55.6802 27.6599 57.4721 29.0781 58.8341 29.0781C59.9096 29.0781 60.5543 28.5817 60.9125 27.4463C61.5572 25.389 62.0587 23.8281 62.8476 22.8353C63.564 21.9835 64.5678 21.2035 66.2164 21.2035C69.9434 21.2035 72.5232 24.1126 72.5232 29.149V30.5681C70.9463 31.8454 65.5708 33.6891 61.199 35.1799C57.2571 36.5281 55.322 38.7973 55.322 42.2736C55.322 46.8146 58.9774 51 64.0664 51C66.288 51 69.7992 48.3755 72.6665 46.46C73.0256 47.7364 73.4554 48.73 74.3867 49.6519C75.1031 50.4328 76.68 51 77.7555 51L83.8474 47.4528L83.1311 45.4664C82.3421 45.8918 81.4109 46.2464 80.5503 46.2464V46.2464Z" fill="#231F20"/>
<path fill-rule="evenodd" clip-rule="evenodd" d="M100.981 46.1053C96.9483 46.1053 90.3432 42.8416 90.4127 32.9803C90.4127 25.6019 94.4458 21.6299 99.0339 21.6299C101.536 21.6299 103.901 22.6227 106.056 24.6092C106.751 25.1764 107.029 25.3183 107.377 25.3183C108.142 25.3183 109.88 23.8282 109.88 22.1254C109.88 21.3454 109.741 20.849 108.767 20.0681C107.725 19.1462 105.431 18.1526 102.302 18.1526C99.5898 18.1526 95.4186 19.2881 91.7339 22.1964C87.0763 25.8147 84.7119 30.4975 84.7119 36.1023C84.7119 43.6934 89.9263 51 98.7559 51C102.927 51 107.586 47.879 110.644 43.7643L109.463 42.2043C106.264 45.3253 103.901 46.1053 100.981 46.1053" fill="#231F20"/>
<path fill-rule="evenodd" clip-rule="evenodd" d="M139.114 44.4605C137.261 42.4762 132.261 36.7593 129.715 33.6449C133.63 32.2483 137.546 29.5727 137.546 24.4644C137.546 19.1158 135.138 16.9278 132.97 15.4685L128.637 16.9278C128.637 16.9278 132.489 19.1158 132.489 24.7074C132.489 30.2893 127.692 32.4791 121.93 32.4886V0C119.445 0.976035 115.304 2.02085 111.715 2.36913V4.18102C115.995 4.80878 116.478 4.94809 116.478 9.47738V42.7879C116.478 47.2484 116.133 47.736 111.508 48.154V50.1052H126.76V48.154C122.275 47.736 121.93 47.4565 121.93 42.7879V35.1616C122.08 35.1555 122.727 35.1251 123.679 35.0127C124.08 35.1817 124.487 35.5857 125.174 36.3771C125.448 36.654 130.311 42.4545 133.673 46.4692C135.652 48.8313 138.573 50.1739 141.637 50.1348C143.048 50.1165 144.594 50.1052 146.085 50.1052V48.154C143.393 48.0146 142.427 47.8057 139.114 44.4605" fill="#231F20"/>
</svg>
